<?xml version="1.0" standalone="no"?><!DOCTYPE svg PUBLIC "-//W3C//DTD SVG 1.1//EN" "http://www.w3.org/Graphics/SVG/1.1/DTD/svg11.dtd"><svg class="icon" width="200px" height="200.00px" viewBox="0 0 1024 1024" version="1.1" xmlns="http://www.w3.org/2000/svg"><path fill="#333333" d="M598.857 128.745H424.73c-21.365 0-38.435 18.59-38.435 41.567 0 23.026 17.111 41.668 38.435 41.668h175.198c20.283 0 37.385-18.642 37.385-41.668 0.01-22.975-17.083-41.567-38.456-41.567z m100.998 41.77c0 54.14-9.942 83.541-62.655 83.541H386.579c-52.478 0-62.655-38.701-62.655-83.54h-83.542c-35.182 0-62.655 25.749-62.655 62.656V797.07c0 41.403 22.538 62.656 62.655 62.656h543.014c33.469 0 62.656-20.406 62.656-62.656V233.172c0-40.762-23.334-62.656-62.656-62.656h-83.541z m-20.476 522.046H348.562c-12.186 0-24.353-12.513-24.353-22.72 0-10.178 10.3-18.896 22.497-18.896h329.857c12.187 0 22.488 7.922 23.415 18.896 0 10.219-8.413 22.72-20.6 22.72z m-4.385-146.358H343.627c-12.218 0-19.989-10.964-19.989-21.181 0-10.208 10.32-20.427 22.528-20.427h330.419c12.216 0 22.536 9.464 23.455 20.427 0 10.217-12.86 21.181-25.046 21.181z m0-146.145H343.627c-12.218 0-19.989-10.961-19.989-21.17 0-10.218 10.32-20.436 22.528-20.436h330.419c12.216 0 22.536 9.463 23.455 20.436 0 10.208-12.86 21.17-25.046 21.17z m0 0" /></svg>