<?xml version="1.0" standalone="no"?><!DOCTYPE svg PUBLIC "-//W3C//DTD SVG 1.1//EN" "http://www.w3.org/Graphics/SVG/1.1/DTD/svg11.dtd"><svg class="icon" width="200px" height="200.00px" viewBox="0 0 1024 1024" version="1.1" xmlns="http://www.w3.org/2000/svg"><path fill="#333333" d="M862.436 844.231c0 40.96-20.48 61.44-56.89 61.44H209.352c-34.133 0-54.613-18.204-56.889-52.338-2.275-77.369 0-293.546 0-368.64 27.307-4.55 56.89-4.55 81.92-15.929 22.756-11.377 40.96-34.133 63.716-52.337 20.48 36.409 54.613 63.715 104.675 63.715 47.787 0 81.92-25.03 106.951-68.266 56.89 93.297 163.84 88.746 211.627 4.55 20.48 18.205 38.685 40.96 61.44 52.338 22.756 11.378 52.338 11.378 81.92 15.93v22.755c-2.275 65.991 0 270.791-2.275 336.782zM851.058 411.876c-59.165 11.377-104.676-18.205-131.982-86.472-18.205 56.89-52.338 91.023-111.503 88.747-52.337-2.275-84.195-34.133-102.4-86.471-20.48 59.164-56.889 91.022-116.053 86.471-47.787-2.275-77.369-29.582-100.124-86.471-4.552 9.102-6.827 18.204-9.103 25.031-20.48 40.96-61.44 65.991-106.95 63.716-45.512-4.551-81.92-34.134-93.299-79.645-2.275-13.653-2.275-29.582 2.276-43.235 18.204-54.614 50.062-104.676 68.267-159.29 4.55-13.653 13.653-18.204 27.306-18.204h650.81c15.928 0 22.755 4.551 29.581 20.48 18.205 50.063 43.236 95.574 65.992 141.085 31.857 52.338-13.654 125.155-72.818 134.258z" /></svg>