<?xml version="1.0" standalone="no"?><!DOCTYPE svg PUBLIC "-//W3C//DTD SVG 1.1//EN" "http://www.w3.org/Graphics/SVG/1.1/DTD/svg11.dtd"><svg class="icon" width="200px" height="200.00px" viewBox="0 0 1024 1024" version="1.1" xmlns="http://www.w3.org/2000/svg"><path d="M873.152 614.784a32 32 0 0 1-32-32V309.184a149.568 149.568 0 0 0-149.376-149.376H452.352a32 32 0 0 1 0-64h239.424a213.632 213.632 0 0 1 213.376 213.376v273.6a32 32 0 0 1-32 32z"  /><path d="M713.472 224.256H214.848c-35.2 0-64 28.8-64 64v544c0 35.2 28.8 64 64 64h498.688c35.2 0 64-28.8 64-64v-544c-0.064-35.2-28.864-64-64.064-64z m-421.568 542.4a39.04 39.04 0 1 1 0-78.08 39.04 39.04 0 0 1 0 78.08z m0-167.36a39.04 39.04 0 1 1 0-78.08 39.04 39.04 0 0 1 0 78.08z m0-167.36a39.04 39.04 0 1 1 0-78.08 39.04 39.04 0 0 1 0 78.08z m383.616 327.68H418.176a32 32 0 0 1 0-64h257.344a32 32 0 0 1 0 64z m0-167.36H418.176a32 32 0 0 1 0-64h257.344a32 32 0 0 1 0 64z m0-167.36H418.176a32 32 0 0 1 0-64h257.344a32 32 0 0 1 0 64z"  /></svg>