<?xml version="1.0" standalone="no"?><!DOCTYPE svg PUBLIC "-//W3C//DTD SVG 1.1//EN" "http://www.w3.org/Graphics/SVG/1.1/DTD/svg11.dtd"><svg t="1505459807250" class="icon" style="" viewBox="0 0 1024 1024" version="1.1" xmlns="http://www.w3.org/2000/svg" p-id="4600" xmlns:xlink="http://www.w3.org/1999/xlink" width="200" height="200"><defs><style type="text/css"></style></defs><path d="M566.904471 962.320219c-15.758915 0-29.164227-12.075013-30.596855-28.03859-1.432629-16.884552 11.051707-31.722492 27.936259-33.257451 23.945365-2.046612 65.696258-21.3871 74.803683-26.4013 143.876851-79.101569 219.703841-175.394682 225.434356-286.116413 4.195555-82.58081-31.4155-158.305469-62.114686-207.321836-14.326287-22.922059-29.266557-42.87653-43.081191-59.35176-1.023306 3.990894-2.251274 8.084119-3.581572 12.177344-11.154038 33.871435-31.620162 65.184605-56.07718 85.85539-7.981788 6.753821-18.828834 8.902764-28.857235 5.832845-9.92607-3.069919-17.703197-11.051707-20.466124-21.080108-44.002167-157.179832-129.857557-230.755548-181.63685-262.171048-1.227967 51.779294-15.042601 105.70753-41.136909 161.170726-30.903847 65.389266-78.589916 130.880863-138.146337 189.413977l-0.102331 0.102331c-12.075013 11.870352-31.517831 11.665691-43.388183-0.409322s-11.665691-31.517831 0.409322-43.388183l0 0 0 0c7.981788-7.879458 6.856152-18.624173-3.581572-38.578644-10.233062 23.12672-23.12672 45.025473-35.815717 66.617234-24.457018 41.546232-47.481408 80.84119-47.89073 122.285091-1.227967 124.843356 64.570621 204.149587 120.033817 248.765737 42.97886 34.58775 99.260701 43.899836 146.94677 24.354688 25.889647-10.642384 48.197722-25.889647 66.310242-45.434795 20.670785-22.308075 31.108508-47.788399 31.210839-75.519997 0-19.442818-5.321192-33.257451-5.423523-33.359782-6.65149-15.554254 0.613984-33.666774 16.270569-40.215934s33.666774 0.613984 40.215934 16.270569c1.023306 2.455935 10.335393 25.173332 10.335393 57.407478 0 30.085202-8.28878 74.803683-47.481408 117.27089-24.252357 26.196639-53.825906 46.560432-88.106664 60.579727-23.945365 9.82374-49.425689 14.633279-74.906014 14.633279-47.174416 0-94.553493-16.47523-133.74612-47.89073-40.011272-32.131815-72.347748-69.687152-96.088452-111.540376-31.722492-55.872518-47.481408-118.294197-46.867424-185.627744 0.613984-57.8168 28.959565-106.116853 56.384172-152.779615 23.024389-39.090297 44.718481-76.133981 47.379077-114.507964 0.920976-13.405311 10.540054-24.661679 23.638373-27.731598 13.098319-3.069919 26.708292 2.762927 33.462113 14.428617 4.707209 8.084119 9.82374 16.168238 15.247262 24.661679 9.619078 15.144932 19.545148 30.699186 27.015284 46.458101 79.30623-98.749048 117.475552-204.354248 103.456257-292.665573-1.63729-10.437723 2.148943-20.977777 10.130731-27.936259 7.879458-6.958482 18.828834-9.312086 28.959565-6.344498 2.046612 0.613984 50.448996 15.349593 107.24249 63.444984 32.745798 27.731598 61.910025 61.193711 86.776366 99.363032 20.875446 32.029484 38.680974 67.435878 53.314253 105.70753 2.558265-5.321192 4.809539-10.847046 6.65149-16.47523 7.163143-21.694091 7.674796-42.262546 1.63729-54.849212s-2.865257-27.629267 7.674796-36.634362c10.642384-9.107425 25.991977-9.82374 37.453007-1.944282 21.796422 15.042601 69.175499 61.398372 110.312408 127.09463 35.406394 56.486502 76.440973 144.490835 71.426773 243.035222-3.172249 62.217017-24.354688 121.057123-62.72867 174.883029-42.97886 60.170404-108.368126 114.712625-194.325847 161.887041-0.511653 0.306992-56.895825 30.085202-99.05604 33.769105C568.746422 962.217888 567.825446 962.320219 566.904471 962.320219z" p-id="4601"></path></svg>