<?xml version="1.0" standalone="no"?><!DOCTYPE svg PUBLIC "-//W3C//DTD SVG 1.1//EN" "http://www.w3.org/Graphics/SVG/1.1/DTD/svg11.dtd"><svg class="icon" width="200px" height="200.00px" viewBox="0 0 1024 1024" version="1.1" xmlns="http://www.w3.org/2000/svg"><path d="M224 224v192h192V224H224z m0-64h192c35.3 0 64 28.7 64 64v192c0 35.3-28.7 64-64 64H224c-35.3 0-64-28.7-64-64V224c0-35.3 28.7-64 64-64z"  /><path d="M608 608v192h192V608H608z m0-64h192c35.3 0 64 28.7 64 64v192c0 35.3-28.7 64-64 64H608c-35.3 0-64-28.7-64-64V608c0-35.3 28.7-64 64-64z"  /><path d="M224 608v192h192V608H224z m0-64h192c35.3 0 64 28.7 64 64v192c0 35.3-28.7 64-64 64H224c-35.3 0-64-28.7-64-64V608c0-35.3 28.7-64 64-64z m384-320v192h192V224H608z m0-64h192c35.3 0 64 28.7 64 64v192c0 35.3-28.7 64-64 64H608c-35.3 0-64-28.7-64-64V224c0-35.3 28.7-64 64-64z"  /></svg>