<?xml version="1.0" standalone="no"?><!DOCTYPE svg PUBLIC "-//W3C//DTD SVG 1.1//EN" "http://www.w3.org/Graphics/SVG/1.1/DTD/svg11.dtd"><svg class="icon" width="200px" height="200.00px" viewBox="0 0 1024 1024" version="1.1" xmlns="http://www.w3.org/2000/svg"><path d="M982.043922 602.452664L901.830678 540.443844v-28.444413-28.444413l80.782132-63.715484a65.42215 65.42215 0 0 0 15.359983-83.34213l-93.01323-161.848709a65.42215 65.42215 0 0 0-56.888825-32.995519 67.128814 67.128814 0 0 0-24.177751 4.551106l-93.866563 38.684401a384.284017 384.284017 0 0 0-46.079948-28.444412l-14.222207-99.555445a65.706594 65.706594 0 0 0-64.568817-56.888826h-186.310904a65.42215 65.42215 0 0 0-64.568817 56.888826l-14.222207 101.546554a390.541788 390.541788 0 0 0-46.079948 28.444412L199.253681 146.204282A62.862152 62.862152 0 0 0 176.498151 142.222064a66.84437 66.84437 0 0 0-56.888826 32.711075L26.027207 337.63518a65.706594 65.706594 0 0 0 15.928871 83.911018L122.169322 483.555018v56.888826L41.102745 603.021552a65.42215 65.42215 0 0 0-15.075538 83.34213l93.01323 162.986485a65.137705 65.137705 0 0 0 80.782132 28.444413l94.151007-38.684401a385.990682 385.990682 0 0 0 46.079948 28.444413l14.222207 102.399886a65.137705 65.137705 0 0 0 64.568817 54.044384h186.02646a66.275482 66.275482 0 0 0 64.568817-56.888825l14.222206-101.830998a386.55957 386.55957 0 0 0 46.079949-28.444413l94.719895 38.684401a65.42215 65.42215 0 0 0 80.497688-28.444413l92.728786-162.702041a65.991038 65.991038 0 0 0-15.644427-81.919909z m-378.310691 229.261967l-15.075538 108.373213-153.030941 2.275553-15.359983-110.648766a42.382175 42.382175 0 0 0-25.599972-32.995518 304.355217 304.355217 0 0 1-69.119923-40.675511 42.382175 42.382175 0 0 0-25.599972-8.817768 41.813287 41.813287 0 0 0-16.213315 3.128886L184.74703 796.44356l-79.644356-136.533182 87.324348-68.835479a42.382175 42.382175 0 0 0 15.644427-38.399958A304.639662 304.639662 0 0 1 204.942563 511.999431a310.328544 310.328544 0 0 1 2.844442-40.391066 42.097731 42.097731 0 0 0-15.928872-38.684402l-85.333238-65.991037 74.808806-137.10207 102.399886 41.813287a41.813287 41.813287 0 0 0 15.928871 3.128885 42.097731 42.097731 0 0 0 25.599972-8.817768 307.768547 307.768547 0 0 1 69.119923-40.67551 42.382175 42.382175 0 0 0 25.599971-33.279963L433.066754 85.333239l155.306494-2.275554 15.359983 110.648766a42.097731 42.097731 0 0 0 25.599972 32.995519A305.20855 305.20855 0 0 1 699.875347 265.95526a42.097731 42.097731 0 0 0 41.813287 5.404438L839.25297 227.555303l79.9288 135.110961-87.324348 69.119923a42.382175 42.382175 0 0 0-15.644427 38.399957 318.29298 318.29298 0 0 1 2.844442 40.675511 306.061882 306.061882 0 0 1-2.844442 40.67551 42.382175 42.382175 0 0 0 15.928872 38.399957l85.333238 65.991038L842.097411 794.168006l-102.68433-41.813286a41.244399 41.244399 0 0 0-15.928872-3.128886 42.097731 42.097731 0 0 0-25.884415 8.817768 301.79522 301.79522 0 0 1-69.119923 40.675511 42.382175 42.382175 0 0 0-24.74664 32.995518z" fill="#333333" /><path d="M512.142222 299.235223A212.764208 212.764208 0 1 0 723.199765 511.999431a212.19532 212.19532 0 0 0-211.057543-212.764208z m0 85.333239A128.568746 128.568746 0 1 1 384.995697 511.999431a127.999858 127.999858 0 0 1 127.146525-128.568746z" fill="#333333" /></svg>