<?xml version="1.0" standalone="no"?><!DOCTYPE svg PUBLIC "-//W3C//DTD SVG 1.1//EN" "http://www.w3.org/Graphics/SVG/1.1/DTD/svg11.dtd"><svg class="icon" width="200px" height="200.00px" viewBox="0 0 1024 1024" version="1.1" xmlns="http://www.w3.org/2000/svg"><path d="M693.12 347.264c11.776 0 23.36 0.896 35.008 2.176-31.36-146.048-187.456-254.528-365.696-254.528-199.232 0-362.432 135.744-362.432 308.224 0 99.52 54.272 181.248 145.024 244.736l-36.224 108.992 126.72-63.488c45.312 8.896 81.664 18.112 126.912 18.112 11.392 0 22.656-0.512 33.792-1.344-7.040-24.256-11.2-49.6-11.2-76.032 0.064-158.336 136-286.848 308.096-286.848zM498.304 249.024c27.392 0 45.376 17.984 45.376 45.248 0 27.136-17.984 45.312-45.376 45.312-27.072 0-54.336-18.176-54.336-45.312 0-27.328 27.2-45.248 54.336-45.248zM244.672 339.584c-27.2 0-54.592-18.176-54.592-45.312 0-27.264 27.392-45.248 54.592-45.248s45.248 17.92 45.248 45.248c0 27.136-18.048 45.312-45.248 45.312z"  /><path d="M1024 629.76c0-144.896-145.024-262.976-307.904-262.976-172.48 0-308.224 118.144-308.224 262.976 0 145.28 135.808 262.976 308.224 262.976 36.096 0 72.512-9.024 108.736-18.112l99.392 54.528-27.264-90.624c72.768-54.656 127.040-127.040 127.040-208.768zM616.128 584.384c-17.984 0-36.224-17.92-36.224-36.224 0-18.048 18.24-36.224 36.224-36.224 27.52 0 45.376 18.176 45.376 36.224 0 18.304-17.856 36.224-45.376 36.224zM815.488 584.384c-17.856 0-36.032-17.92-36.032-36.224 0-18.048 18.112-36.224 36.032-36.224 27.264 0 45.376 18.176 45.376 36.224 0 18.304-18.112 36.224-45.376 36.224z"  /></svg>