<?xml version="1.0" standalone="no"?><!DOCTYPE svg PUBLIC "-//W3C//DTD SVG 1.1//EN" "http://www.w3.org/Graphics/SVG/1.1/DTD/svg11.dtd"><svg class="icon" width="64px" height="64.00px" viewBox="0 0 1024 1024" version="1.1" xmlns="http://www.w3.org/2000/svg"><path d="M571.968 901.12H287.68a7.68 7.68 0 0 1-7.616-7.616V304.384a7.68 7.68 0 0 1 2.816-5.888l254.912-203.968a7.488 7.488 0 0 1 9.472 0.064l254.72 203.84a7.744 7.744 0 0 1 2.88 5.952V609.28a32 32 0 0 0 64 0V304.384c0-21.824-9.728-42.176-26.816-55.936L587.264 44.544a71.232 71.232 0 0 0-89.472 0L242.816 248.512a71.424 71.424 0 0 0-26.816 55.872v589.12a71.68 71.68 0 0 0 71.616 71.616h284.288a32 32 0 0 0 0.064-64z"  /><path d="M422.144 315.52a120.448 120.448 0 0 0 240.704 0 120.448 120.448 0 0 0-240.704 0z m176.704 0a56.384 56.384 0 0 1-112.704 0 56.384 56.384 0 0 1 112.704 0zM867.776 735.232h-111.104V626.176a32 32 0 0 0-64 0v109.056H581.568a32 32 0 0 0 0 64h111.04v127.424a32 32 0 0 0 64 0v-127.424h111.104a32 32 0 0 0 0.064-64z"  /></svg>