<?xml version="1.0" standalone="no"?><!DOCTYPE svg PUBLIC "-//W3C//DTD SVG 1.1//EN" "http://www.w3.org/Graphics/SVG/1.1/DTD/svg11.dtd"><svg class="icon" width="200px" height="200.00px" viewBox="0 0 1024 1024" version="1.1" xmlns="http://www.w3.org/2000/svg"><path d="M865.340755 229.331775l0 636.007763L264.665607 865.339538c-58.548342 0-106.003929-47.456803-106.003929-106.001497 0-58.543477 47.455587-106.00028 106.003929-106.00028l530.007483 0L794.67309 87.99523 229.331775 87.99523c-77.735647 0-141.337761 63.602114-141.337761 141.337761l0 565.341315c0 77.734431 63.602114 141.330464 141.337761 141.330464l706.674212 0L936.005987 229.331775 865.340755 229.331775 865.340755 229.331775zM299.998223 724.000561l494.673651 0 0 70.67253-494.673651 0L299.998223 724.000561 299.998223 724.000561zM299.998223 724.000561" /></svg>