<?xml version="1.0" standalone="no"?><!DOCTYPE svg PUBLIC "-//W3C//DTD SVG 1.1//EN" "http://www.w3.org/Graphics/SVG/1.1/DTD/svg11.dtd"><svg class="icon" width="200px" height="200.00px" viewBox="0 0 1024 1024" version="1.1" xmlns="http://www.w3.org/2000/svg"><path d="M660.93056 484.67968h-119.15264V593.92h119.15264v-109.24032z m-178.70848 0H363.06944V593.92h119.15264v-109.24032z m178.70848-163.84h-119.15264V430.08h119.15264V320.83968z m-178.70848 0H363.06944V430.08h119.15264V320.83968zM780.0832 102.4H243.9168c-32.27648 0-59.5968 25.02656-59.5968 54.59968v709.95968c0 29.57312 27.32032 54.59968 59.55584 54.59968h536.20736c32.27648 0 59.55584-25.02656 59.55584-54.59968V156.99968c0.04096-29.57312-27.27936-54.59968-59.55584-54.59968zM512 867.00032c-32.27648 0-59.5968-25.02656-59.5968-54.59968s27.32032-54.59968 59.5968-54.59968 59.55584 25.02656 59.55584 54.59968c0.04096 29.57312-27.27936 54.59968-59.55584 54.59968z m268.0832-163.84H243.9168v-491.52h536.20736v491.52z" /></svg>