<?xml version="1.0" standalone="no"?><!DOCTYPE svg PUBLIC "-//W3C//DTD SVG 1.1//EN" "http://www.w3.org/Graphics/SVG/1.1/DTD/svg11.dtd"><svg t="1533890972260" class="icon" style="" viewBox="0 0 1024 1024" version="1.1" xmlns="http://www.w3.org/2000/svg" p-id="4185" xmlns:xlink="http://www.w3.org/1999/xlink" width="200" height="200"><defs><style type="text/css"></style></defs><path d="M511.8 176.3c-47.5 0-93.6 8.1-136.7 22.4-43.5 14.3-95.9 43.9-105.7 49.7l-0.4-0.4C146.2 323.3 64.2 440.7 64.2 511.5c0 84.2 200.3 336.5 448.5 336.5 52.9 0 104-11.6 151.9-30.9 48.8-18.8 92.3-47.9 101.7-54.2 117.8-80.2 194.5-196.3 194-250 0.1-85.2-200.7-336.6-448.5-336.6zM735 718.9c-38.1 25.1-87.8 46.2-100.4 51.1-38.5 13.9-79.8 22.4-121.9 22.4-216.9 0-392.5-209.7-392.5-280 0-59.1 70.8-156.4 177.9-219.1 0 0 0 0.4 0.4 0.4 37.6-25.1 90.1-41.7 105.7-46.2l0.4 0.4c34.1-10.3 69.9-15.7 107.1-15.7 216.4 0 392.5 211.5 392.5 280 0.1 41.4-66.6 138.2-169.2 206.7z" p-id="4186"></path><path d="M513.6 344.3c-93.6 0-168.9 75.3-168.9 168s75.7 168 168.9 168 168.9-74.8 168.9-168-75.2-168-168.9-168z m-0.4 279.6c-61.8 0-112-50.2-112-112s50.2-112.5 112.5-112.5c61.8 0 112 51.1 111.6 112.5-0.1 61.8-50.3 112-112.1 112z" p-id="4187"></path></svg>