<?xml version="1.0" standalone="no"?><!DOCTYPE svg PUBLIC "-//W3C//DTD SVG 1.1//EN" "http://www.w3.org/Graphics/SVG/1.1/DTD/svg11.dtd"><svg t="1536663662226" class="icon" style="" viewBox="0 0 1024 1024" version="1.1" xmlns="http://www.w3.org/2000/svg" p-id="11802" xmlns:xlink="http://www.w3.org/1999/xlink" width="200" height="200"><defs><style type="text/css"></style></defs><path d="M802.304 806.912l-35.84-50.176c117.248-78.336 193.536-188.928 193.536-236.032 0-78.336-201.216-320.512-449.024-320.512-42.496 0-83.456 6.144-122.368 17.92L350.72 163.84c50.176-17.408 104.448-27.136 160.256-27.136 283.136 0 512.512 287.232 512.512 384.512 1.536 61.952-86.528 194.048-221.184 285.696z" fill="" p-id="11803"></path><path d="M512 391.68l119.808 172.032c5.12-13.312 8.192-28.16 8.192-43.52 0.512-71.168-57.344-128.512-128-128.512z" fill="" p-id="11804"></path><path d="M764.928 253.952c-149.504-88.576-281.6-92.16-388.608-55.296l86.528 123.392 7.68 10.752c13.312-3.072 27.136-5.12 41.472-5.12 106.496 0 192.512 86.016 192.512 192.512 0 38.4-11.264 73.216-30.72 102.912l107.008 152.064s175.616-105.472 208.896-253.44c-15.872-89.088-75.776-180.224-224.768-267.776z m68.608 709.632c-14.848 10.24-34.304 6.144-44.544-7.68L182.784 89.6c-10.24-14.848-7.168-34.304 7.68-44.544 14.848-10.24 34.304-6.144 44.544 7.68l606.72 866.304c10.24 14.848 6.656 34.304-8.192 44.544z m-433.152-506.88c-10.24 18.944-16.384 40.96-16.384 62.976 0 70.656 57.344 128 128 128 7.168 0 13.824-1.024 20.992-2.048L400.384 456.704z" fill="" p-id="11805"></path><path d="M585.728 721.408l-13.312-18.944c-18.944 6.144-38.912 10.752-59.904 10.752-106.496 0-192.512-86.016-192.512-192.512 0-45.056 15.872-86.016 41.984-118.272l-3.584-6.144-100.352-143.872c-158.72 87.04-226.816 219.136-222.72 271.872 3.584 52.736 48.64 140.8 203.264 253.44 242.688 161.792 433.152 65.536 433.152 65.536l-86.016-121.856z" fill="" p-id="11806"></path><path d="M269.312 268.8c-124.416 72.192-205.824 183.296-205.824 251.392 0 80.384 200.704 320.512 449.024 320.512 48.64 0 95.744-9.728 139.264-25.6l36.864 52.736c-55.296 22.528-114.688 36.352-176.64 36.352-282.624 0.512-512-288.256-512-384.512 0-80.896 93.696-215.04 234.496-301.056l34.816 50.176z" fill="" p-id="11807"></path></svg>