<?xml version="1.0" standalone="no"?><!DOCTYPE svg PUBLIC "-//W3C//DTD SVG 1.1//EN" "http://www.w3.org/Graphics/SVG/1.1/DTD/svg11.dtd"><svg t="1533891019351" class="icon" style="" viewBox="0 0 1024 1024" version="1.1" xmlns="http://www.w3.org/2000/svg" p-id="4295" xmlns:xlink="http://www.w3.org/1999/xlink" width="200" height="200"><defs><style type="text/css"></style></defs><path d="M250.488 781.53l201.182-85.65-123.498-121.506zM848.058 307.46L720.576 175.994 351.08 540.511l132.46 137.442zM953.082 150.208s-33.745-37.347-72.585-65.729-68.717 0-68.717 0l-65.73 65.729 133.451 132.953s56.269-56.767 73.58-76.186c17.313-19.42 0-56.767 0-56.767z" p-id="4296"></path><path d="M810.959 850.37c0 9.216-7.471 16.688-16.687 16.688h-622.19c-9.217 0-16.688-7.472-16.688-16.687V233.103c0-9.216 7.471-16.687 16.687-16.687h395.56l82.39-87.664H87.358c-11.12 0-20.135 9.015-20.135 20.135v785.7c0 11.12 9.014 20.135 20.135 20.135h791.64c11.12 0 20.135-9.014 20.135-20.134V373.415l-88.171 81.839V850.37z" p-id="4297"></path></svg>