<?xml version="1.0" standalone="no"?><!DOCTYPE svg PUBLIC "-//W3C//DTD SVG 1.1//EN" "http://www.w3.org/Graphics/SVG/1.1/DTD/svg11.dtd"><svg t="1533890937864" class="icon" style="" viewBox="0 0 1024 1024" version="1.1" xmlns="http://www.w3.org/2000/svg" p-id="4076" xmlns:xlink="http://www.w3.org/1999/xlink" width="200" height="200"><defs><style type="text/css"></style></defs><path d="M172.48 472.32c15.104 0 27.392-12.288 27.392-27.392s-12.288-27.392-27.392-27.392c-0.256 0-0.512 0.128-0.768 0.128l-65.408 0.192c-1.536-0.256-3.072-0.32-4.608-0.32-20.608 0-37.312 16.896-37.312 37.824L64 908.992c0 20.992 16.768 37.376 37.376 37.376 1.984 0 3.968 0.256 5.888 0H172.416v-0.256c14.016-0.512 25.344-11.904 25.344-25.984 0-14.272-11.264-25.6-25.344-26.24v-0.384h-53.312l1.536-421.184h51.84z m770.944-39.232c-20.16-32.96-49.536-46.208-85.12-47.68-1.792-0.192-3.712-0.384-5.632-0.384l-215.104-0.768c14.144-40.896 23.808-89.6 23.808-135.424 0-29.696-3.392-58.624-9.472-86.464l-0.576 0.064c-11.072-48.704-54.144-85.12-105.664-85.12-59.968 0-99.968 50.432-99.968 111.104 0 3.456-0.256 6.72 0 10.048-3.136 113.472-95.552 204.736-205.504 217.28v57.472l-0.832 232.704v240.512h11.2l523.584 0.256 9.152-0.256c20.224 0.128 31.616-4.992 49.984-16.896 17.472-11.264 30.656-26.624 39.296-44.096a37.932 37.932 0 0 0 5.312-11.776l80.704-360.512c1.088-4.224 1.408-8.576 1.088-12.8 1.664-22.784-3.456-46.336-16.256-67.264z m-34.24 55.36l-86.848 385.024h-0.128c-2.688 6.4-7.168 12.096-13.44 16.128-4.352 2.88-9.216 4.48-14.08 5.248-1.6-0.256-3.2 0-4.8 0l-499.52-0.64-0.192-426.496c93.568-42.176 162.176-83.456 197.504-181.824 0.064 0 0.128 0.064 0.192 0.064 3.136-9.6 6.656-21.696 9.088-34.752 5.824-30.592 5.504-60.864 5.504-60.864-5.184-39.744 27.2-55.424 46.464-55.424 26.56 0.96 52.672 35.2 52.672 54.784 0 0 5.888 28.864 5.952 59.904 0.064 39.104-4.864 59.52-4.864 59.52h-0.576c-6.144 32.32-16.96 62.976-31.936 91.008l0.384 0.384c-2.432 5.056-3.904 10.688-3.904 16.64 0 20.928 20.032 22.784 40.64 22.784l249.984 0.256 15.296 0.512v0.064c12.672-0.704 25.344 5.376 32.64 17.216 5.76 9.408 6.72 20.48 3.648 30.336l0.32 0.128z m-658.56 458.048h0.32c0.256 0 0.384-0.128-0.32-0.128-0.64 0-0.512 0.128-0.256 0.128h0.256z m0 0" p-id="4077"></path></svg>