<?xml version="1.0" standalone="no"?><!DOCTYPE svg PUBLIC "-//W3C//DTD SVG 1.1//EN" "http://www.w3.org/Graphics/SVG/1.1/DTD/svg11.dtd"><svg class="icon" width="200px" height="200.00px" viewBox="0 0 1024 1024" version="1.1" xmlns="http://www.w3.org/2000/svg"><path d="M888.353247 625.038961l-53.194805 0 0 292.571429c0 2.65974-5.319481 7.979221-5.319481 7.979221-2.65974 0-2.65974 0-2.65974 0l-276.612987-162.244156c-2.65974-2.65974-15.958442-7.979221-31.916883-7.979221-15.958442 0-26.597403 5.319481-31.916883 7.979221L202.14026 925.58961c0 0-5.319481-7.979221-5.319481-7.979221l0-771.324675c0-37.236364 42.555844-79.792208 79.792208-79.792208l478.753247 0c37.236364 0 79.792208 42.555844 79.792208 79.792208l0 79.792208 53.194805 0 0-85.111688c0-69.153247-58.514286-127.667532-127.667532-127.667532L271.293506 13.298701c-69.153247 0-127.667532 55.854545-127.667532 127.667532l0 883.033766 7.979221-2.65974c47.875325-21.277922 345.766234-194.161039 361.724675-204.8 0 0 2.65974 0 5.319481 0 0 0 2.65974 0 5.319481 0 13.298701 7.979221 287.251948 167.563636 361.724675 204.8l7.979221 2.65974L888.353247 625.038961zM747.387013 598.441558l7.979221 0 0-132.987013 132.987013 0 0-53.194805-132.987013 0 0-132.987013-53.194805 0 0 132.987013-132.987013 0 0 53.194805 132.987013 0 0 132.987013L747.387013 598.441558z" /></svg>