<?xml version="1.0" standalone="no"?><!DOCTYPE svg PUBLIC "-//W3C//DTD SVG 1.1//EN" "http://www.w3.org/Graphics/SVG/1.1/DTD/svg11.dtd"><svg class="icon" width="128px" height="121.93px" viewBox="0 0 1075 1024" version="1.1" xmlns="http://www.w3.org/2000/svg"><path d="M35.375788 37.263978C-33.320993 108.126624 11.717883 192.262132 57.256574 236.579053c7.885968 7.774898 19.492781 8.663458 26.04591 2.2214l154.720479-159.218814c6.386524-6.553129 5.553499-17.493522-2.832284-25.82377C190.984827 10.718253 104.350244-33.320993 35.375788 37.263978z m38.041468 37.041837c21.547576-22.213996 58.867088-31.432804 102.850799 0.44428L76.58275 177.10108c-32.987783-43.095152-24.71307-80.692339-3.165494-102.795265z m174.713075 56.923364L135.061093 247.408376a43.206221 43.206221 0 0 0 0.833025 61.088488l162.217703 127.730475a43.317291 43.317291 0 0 0 61.088488-0.77749l83.024809-85.079603a43.261756 43.261756 0 0 0-0.833025-61.088488L309.329889 130.451689a43.317291 43.317291 0 0 0-61.199558 0.77749z m141.058872 180.877459a10.773788 10.773788 0 0 1 0 15.272122L334.875984 383.191424a10.773788 10.773788 0 0 1-15.272122 0L191.095897 282.617559a11.106998 11.106998 0 0 1 0-15.327657l78.415405-80.747874a11.106998 11.106998 0 0 1 15.327657 0z m339.985203 400.573876l-66.641987 68.308037 150.610891 80.081454 150.555355 80.136989-84.079973-148.38949L795.649788 644.205873z m123.065536 119.788972L755.275851 763.439494l25.101815-25.768234zM672.251042 176.10145l108.126624 105.516479-39.651982 40.485007-108.126624-105.516479zM751.610542 94.409481l108.126623 105.51648-39.651982 40.707147-108.126623-105.238805z m-158.718999 163.217333l108.182159 105.516479-39.707517 40.707147-108.126624-105.516479zM434.228079 420.622007l108.126624 105.516479-39.651982 40.318402-108.126624-105.516479z m-158.663463 162.995193l108.126623 105.516479-39.707517 40.762682-108.126624-105.516479 39.707518-40.707147zM354.86858 502.091836l108.126624 105.516479-39.651982 40.762682-108.126624-105.516479z m-158.663464 162.995193l108.126624 105.516479-39.651982 40.762682-108.182159-105.516479zM800.759007 44.427991l-9.440948 9.718623 221.473536 215.642363-30.211034 31.099594 0.33321 0.33321-49.09293 50.42577-39.707517 40.485007-39.651982 40.707147-39.651983 40.762682-39.707517 40.762682-10.718253 11.106997-28.933729 29.877824-221.862281-216.253247-39.651982 40.762682 221.473536 215.642363-28.544984 29.378009 0.333209 0.33321L616.438378 677.526866l-39.651982 40.762682-39.707517 40.707147-39.651982 40.707147-39.707517 40.762682-9.052203 9.218808-30.599779 31.488339-0.33321-0.33321-39.651983 40.707147-10.218438 10.496113-29.489079 30.266569L116.623477 746.612393l-8.774528 9.052203a43.817106 43.817106 0 0 0 0.833025 62.032583l198.81526 193.594972a43.872641 43.872641 0 0 0 62.310258-0.55535L1062.49541 298.944846a43.817106 43.817106 0 0 0-0.833024-62.032583L862.847125 43.317291a43.872641 43.872641 0 0 0-62.088118 1.1107z" fill="#333333" /></svg>