<?xml version="1.0" standalone="no"?><!DOCTYPE svg PUBLIC "-//W3C//DTD SVG 1.1//EN" "http://www.w3.org/Graphics/SVG/1.1/DTD/svg11.dtd"><svg t="1505879585187" class="icon" style="" viewBox="0 0 1024 1024" version="1.1" xmlns="http://www.w3.org/2000/svg" p-id="18962" xmlns:xlink="http://www.w3.org/1999/xlink" width="200" height="200"><defs><style type="text/css"></style></defs><path d="M515.681 710.119c24.405 0 44.192 19.776 44.192 44.183s-19.787 44.184-44.192 44.184c-24.4 0-44.184-19.777-44.184-44.184S491.281 710.119 515.681 710.119zM462.806 645.005l-42.667-386.412c-0.908-14.049 5.898-25.67 15.219-25.67l135.064 0c9.32 0 16.127 11.621 15.22 25.67l-42.668 386.412c-0.433 6.712-5.877 12.095-12.178 12.095l-55.813 0C468.688 657.099 463.239 651.717 462.806 645.005zM506.85 1010.573c-273.311 0-494.875-221.554-494.875-494.869 0-273.305 221.564-494.869 494.875-494.869 92.248 0 221.929 31.227 252.223 69.661 2.28 11.384 1.238 24.963-4.794 36.383-13.857 26.237-34.408 29.252-49.338 34.026-58.64-32.815-126.125-51.7-198.091-51.7-224.509 0-406.504 181.996-406.504 406.499 0 224.502 181.996 406.504 406.504 406.504 224.496 0 406.498-182.002 406.498-406.504 0-113.432-28.892-198.241-103.823-271.98-9.362-20.081 7.889-44.229 28.325-51.374 19.468-6.811 31.758-6.239 46.678 2.196 83.396 88.577 117.186 189.899 117.186 321.159C1001.714 789.019 780.16 1010.573 506.85 1010.573z" p-id="18963"></path></svg>