<?xml version="1.0" standalone="no"?><!DOCTYPE svg PUBLIC "-//W3C//DTD SVG 1.1//EN" "http://www.w3.org/Graphics/SVG/1.1/DTD/svg11.dtd"><svg class="icon" width="200px" height="200.00px" viewBox="0 0 1024 1024" version="1.1" xmlns="http://www.w3.org/2000/svg"><path d="M493.619379 601.166181l-171.918743-97.197523V698.263809l171.918743 97.197523zM703.4981 698.263809V503.968658l-171.918743 97.197523v194.295151zM335.286312 469.00552l176.314109 103.990361L687.91453 468.506046 511.600421 367.013052z"  /><path d="M512.599368 98.695943c-9.190311 0-18.180832 0.399579-27.171353 0.899052l-14.984202-80.315322-3.396419-17.981042L450.964351 22.975776l-48.24913 64.731753-51.745444 69.526696 73.322694 46.151342 91.203843 57.339546-18.979989-101.792678-1.598315-8.790732c5.893786-0.299684 11.787572-0.499473 17.781253-0.499473 236.850285 0 427.549228 200.8882 410.766921 441.234799-14.185044 202.886094-178.511792 367.212841-381.397886 381.297991C301.7217 988.957326 100.8335 798.158488 100.8335 561.408098c0-60.735965 13.285992-118.375195 36.961031-170.320428 7.69189-16.782306-4.69505-35.762295-23.175566-35.762295-9.789679 0-18.880094 5.594102-22.975776 14.484728-30.967351 67.628698-46.051447 143.948233-40.55724 224.163661 15.883254 228.459132 201.08799 413.563973 429.547122 428.947753 269.515845 18.180832 494.578558-195.893466 494.578557-461.513419 0-255.230906-207.481249-462.712155-462.61226-462.712155z"  /></svg>