<?xml version="1.0" standalone="no"?><!DOCTYPE svg PUBLIC "-//W3C//DTD SVG 1.1//EN" "http://www.w3.org/Graphics/SVG/1.1/DTD/svg11.dtd"><svg class="icon" width="200px" height="200.00px" viewBox="0 0 1024 1024" version="1.1" xmlns="http://www.w3.org/2000/svg"><path d="M923.888268 652.156425c-8.581006-40.044693-20.022346-91.530726-20.022346-140.156425 0-60.067039 20.022346-122.994413 34.324022-165.899441l2.860335-8.581006c11.441341-34.324022 17.162011-51.486034 11.441341-71.50838v-5.72067l-2.860335-2.860335c-14.301676-20.022346-34.324022-22.882682-65.78771-28.603352l-11.44134-2.860336c-42.905028-8.581006-100.111732-20.022346-145.877095-45.765363-54.346369-31.463687-102.972067-82.949721-137.29609-114.413408l-22.882681-22.882681c-20.022346-20.022346-31.463687-31.463687-51.486034-31.463687-28.603352 0-45.765363 22.882682-62.927374 48.625698l-5.72067 8.581006c-28.603352 37.184358-68.648045 91.530726-120.134079 120.134078-54.346369 31.463687-122.994413 42.905028-163.039106 45.765363h-11.441341c-31.463687 2.860335-54.346369 5.72067-65.787709 28.603352-11.441341 17.162011-5.72067 37.184358 2.860335 62.927374l5.72067 20.022347c17.162011 45.765363 42.905028 114.413408 42.905028 171.620111 0 62.927374-25.743017 120.134078-42.905028 157.318436l-8.581005 22.882682c-8.581006 20.022346-17.162011 37.184358-5.720671 60.067039 11.441341 22.882682 28.603352 25.743017 57.206704 31.463687l22.882682 5.72067c45.765363 8.581006 120.134078 22.882682 171.620112 54.346369 40.044693 22.882682 80.089385 62.927374 117.273743 117.273743 20.022346 25.743017 34.324022 45.765363 60.067039 45.765363 22.882682 0 34.324022-14.301676 54.346369-34.324022l11.44134-11.441341c25.743017-31.463687 80.089385-94.391061 134.435754-128.715084 54.346369-28.603352 117.273743-34.324022 157.318436-37.184357h5.720671c25.743017 0 45.765363 0 60.067039-20.022347 17.162011-25.743017 8.581006-54.346369-2.860335-94.391061 0-8.581006-2.860335-22.882682-5.720671-34.324022z m-606.391061-108.692738l-57.206704-22.882681 57.206704-28.603352c54.346369-25.743017 82.949721-82.949721 71.50838-137.29609l-8.581006-57.206704 48.625698 34.324023c48.625698 34.324022 108.692737 31.463687 157.318436-2.860336l51.486034-37.184357-5.720671 62.927374c-2.860335 60.067039 28.603352 111.553073 82.949721 134.435754l57.206704 22.882682-57.206704 25.743017c-54.346369 22.882682-85.810056 77.22905-77.22905 137.296089l8.581005 60.067039-48.625698-34.324022c-48.625698-34.324022-108.692737-31.463687-157.318436 2.860335l-48.625698 37.184358 5.72067-60.067039c5.72067-62.927374-25.743017-117.273743-80.089385-137.29609z m-134.435754-225.96648c31.463687-5.72067 74.368715-8.581006 117.273743-22.882682l8.581005 77.22905c2.860335 20.022346-8.581006 40.044693-25.743017 45.765364l-65.787709 28.603352c-8.581006-42.905028-22.882682-85.810056-34.324022-117.273744l-2.860336-11.44134h2.860336z m34.324022 277.452514l71.50838 28.603352c17.162011 5.72067 28.603352 25.743017 25.743017 48.625698l-5.720671 74.368715c-57.206704-20.022346-108.692737-28.603352-131.575419-31.463687 14.301676-31.463687 31.463687-71.50838 40.044693-120.134078z m609.251397-157.318436l-80.089386-31.463687c-17.162011-5.72067-28.603352-25.743017-25.743017-48.625699l5.720671-77.22905c45.765363 20.022346 94.391061 28.603352 128.715083 34.324023l8.581006 2.860335c-14.301676 28.603352-28.603352 71.50838-37.184357 120.134078z m-288.893855-177.340782c-14.301676 11.441341-40.044693 11.441341-54.346369 2.860335l-57.206704-42.905028c34.324022-31.463687 65.787709-68.648045 88.670391-100.111732l17.162011 17.162011c20.022346 20.022346 45.765363 45.765363 74.368715 71.50838l-68.648044 51.486034z m-40.044693 506.279329c14.301676-11.441341 40.044693-11.441341 54.346369-2.860335l60.067039 40.044693c-40.044693 34.324022-71.50838 71.50838-97.251397 100.111732-17.162011-25.743017-42.905028-60.067039-80.089385-91.530726l62.927374-45.765364z m254.569832-157.318435l68.648045-31.463688c5.72067 42.905028 17.162011 85.810056 31.463687 134.435755v5.72067c-42.905028 2.860335-82.949721 8.581006-117.273743 17.162011l-11.441341-77.22905c0-22.882682 8.581006-42.905028 28.603352-48.625698z" /></svg>