<?xml version="1.0" standalone="no"?><!DOCTYPE svg PUBLIC "-//W3C//DTD SVG 1.1//EN" "http://www.w3.org/Graphics/SVG/1.1/DTD/svg11.dtd"><svg t="1505459787608" class="icon" style="" viewBox="0 0 1024 1024" version="1.1" xmlns="http://www.w3.org/2000/svg" p-id="3939" xmlns:xlink="http://www.w3.org/1999/xlink" width="200" height="200"><defs><style type="text/css"></style></defs><path d="M510.374603 692.780247c-28.895944 0-52.373898 23.477954-52.373898 52.373898s23.477954 52.373898 52.373898 52.373898 52.373898-23.477954 52.373898-52.373898C562.748501 716.258201 539.270547 692.780247 510.374603 692.780247L510.374603 692.780247z" p-id="3940"></path><path d="M510.374603 623.791182c24.200353 0 44.066314-19.504762 44.066314-43.705115L554.440917 251.755908c0-24.200353-19.865961-43.705115-44.066314-43.705115s-44.066314 19.504762-44.066314 43.705115l0 328.330159C466.308289 604.28642 486.17425 623.791182 510.374603 623.791182L510.374603 623.791182z" p-id="3941"></path><path d="M510.374603 0C228.639153 0 0 228.639153 0 510.374603c0 281.73545 228.639153 510.374603 510.374603 510.374603 281.73545 0 510.374603-228.639153 510.374603-510.374603S792.471252 0 510.374603 0L510.374603 0zM510.374603 952.48254c-243.809524 0-442.469136-198.298413-442.469136-442.469136S266.565079 67.905467 510.374603 67.905467s442.469136 198.298413 442.469136 442.469136C952.843739 754.184127 754.545326 952.48254 510.374603 952.48254L510.374603 952.48254z" p-id="3942"></path></svg>