<?xml version="1.0" standalone="no"?><!DOCTYPE svg PUBLIC "-//W3C//DTD SVG 1.1//EN" "http://www.w3.org/Graphics/SVG/1.1/DTD/svg11.dtd"><svg class="icon" width="200px" height="200.00px" viewBox="0 0 1024 1024" version="1.1" xmlns="http://www.w3.org/2000/svg"><path d="M28.437201 544.506631c0-40.635462 32.5073-73.142762 73.142761-73.142762 48.76095 0 81.269587 32.5073 81.269587 73.142762 0 48.76095-32.5073 81.269587-81.269587 81.269587C60.9445 625.776218 28.437201 593.268918 28.437201 544.506631m97.524573-284.442884c0-56.889112 40.634125-105.651399 97.523237-105.651399 56.889112 0 105.651399 48.762287 105.651398 105.651399s-48.762287 97.523236-105.651398 97.523236-97.523236-40.634125-97.523237-97.523236m40.634125 577.013931c0-32.5073 24.381812-56.889112 56.889112-56.889112 32.508637 0 56.889112 24.380475 56.889112 56.889112s-24.380475 56.889112-56.889112 56.889111c-32.5073 0-56.889112-24.379137-56.889112-56.889111m284.445559 121.906385c0-40.635462 24.380475-65.017274 65.015937-65.017274 40.636799 0 65.017274 24.380475 65.017274 65.017274 0 40.634125-24.380475 65.015937-65.017274 65.015937-40.634125 0-65.015937-24.381812-65.015937-65.015937m316.952858-121.906385c0-24.379137 16.25365-40.635462 40.635462-40.635462 24.379137 0 40.635462 16.254987 40.635462 40.635462s-16.254987 40.635462-40.635462 40.635461c-24.381812 0-40.635462-16.25365-40.635462-40.635461m89.396412-292.571047c0-32.508637 32.5073-65.017274 73.140087-65.017274 32.508637 0 65.017274 32.5073 65.017274 65.017274 0 40.635462-32.5073 73.141424-65.017274 73.141424-40.632787 0-73.140087-32.505962-73.140087-73.141424M670.469743 260.063747c0-81.270924 65.017274-138.160036 138.160035-138.160036s138.158698 56.889112 138.158699 138.160036c0 73.141424-65.015937 138.158698-138.158699 138.158698s-138.160036-65.017274-138.160035-138.158698m-292.571047-121.905049C377.898696 65.015937 442.91597 0 516.057395 0c73.142762 0 138.158698 65.015937 138.158698 138.158698 0 73.141424-65.014599 138.158698-138.158698 138.158699-73.141424 0-138.158698-65.017274-138.158699-138.158699" /></svg>