<?xml version="1.0" standalone="no"?><!DOCTYPE svg PUBLIC "-//W3C//DTD SVG 1.1//EN" "http://www.w3.org/Graphics/SVG/1.1/DTD/svg11.dtd"><svg class="icon" width="200px" height="200.00px" viewBox="0 0 1024 1024" version="1.1" xmlns="http://www.w3.org/2000/svg"><path d="M806.861 392.942v80.424h-29.103v-203.924c0-110.426-69.484-210.691-173.041-249.529-29.358-11.091-60.36-16.705-92.041-16.705-78.982 0-155.945 35.82-206.078 95.789-39.771 47.69-61.768 108.204-61.768 170.446v203.924h-29.069v-80.424h-52.626v117.921c0 182.945 140.444 333.141 321.812 346.726v105.896h-153.486v61.191h359.564v-61.191h-153.418v-105.896c181.333-13.603 321.863-163.781 321.863-346.726v-117.921h-52.609zM646.406 413.192l-196.461 123.806c-10.989 6.716-28.306 0.137-28.306-15.637v-263.148c0-11.431 9.531-18.52 18.571-18.52 3.748 0 7.31 1.171 10.533 3.494l196.461 139.273c5.104 3.612 7.989 9.328 7.785 15.603-0.153 6.275-3.307 11.736-8.582 15.128M511.271 806.387c-157.012 0-287.009-124.705-295.014-280.379h29.358c6.987 103.726 75.725 196.241 173.82 232.45 28.882 10.685 59.376 16.061 90.582 16.061 78.014 0 151.774-33.411 202.33-91.531 38.023-43.908 60.767-99.214 64.617-156.98h29.34c-7.938 155.69-137.967 280.379-295.033 280.379z" /></svg>