<?xml version="1.0" standalone="no"?><!DOCTYPE svg PUBLIC "-//W3C//DTD SVG 1.1//EN" "http://www.w3.org/Graphics/SVG/1.1/DTD/svg11.dtd"><svg class="icon" width="200px" height="200.00px" viewBox="0 0 1024 1024" version="1.1" xmlns="http://www.w3.org/2000/svg"><path d="M170 92l80 0 0 830-80 0 0-830Z"  /><path d="M40 142l80 0 0 730-80 0 0-730Z"  /><path d="M903 40H383a80 80 0 0 0-80 80v784a80 80 0 0 0 80 80h520a80 80 0 0 0 80-80V120a80 80 0 0 0-80-80zM683 850a20 20 0 0 1-20 20H423a20 20 0 0 1-20-20v-20a20 20 0 0 1 20-20h240a20 20 0 0 1 20 20z m200-110a20 20 0 0 1-20 20H423a20 20 0 0 1-20-20v-20a20 20 0 0 1 20-20h440a20 20 0 0 1 20 20z m0-110a20 20 0 0 1-20 20H423a20 20 0 0 1-20-20v-20a20 20 0 0 1 20-20h440a20 20 0 0 1 20 20z m0-109.9a19.9 19.9 0 0 1-19.9 19.9H422.9a19.9 19.9 0 0 1-19.9-19.9v-20.2a19.9 19.9 0 0 1 19.9-19.9h440.2a19.9 19.9 0 0 1 19.9 19.9z m0-120.1a20 20 0 0 1-20 20H423a20 20 0 0 1-20-20V160a20 20 0 0 1 20-20h440a20 20 0 0 1 20 20z"  /></svg>