<?xml version="1.0" standalone="no"?><!DOCTYPE svg PUBLIC "-//W3C//DTD SVG 1.1//EN" "http://www.w3.org/Graphics/SVG/1.1/DTD/svg11.dtd"><svg class="icon" width="200px" height="171.09px" viewBox="0 0 1197 1024" version="1.1" xmlns="http://www.w3.org/2000/svg"><path d="M848.515613 374.758931c-67.021734 0-131.485386 20.208843-185.97252 58.835873l-6.395204 4.604546L245.575818 27.371471C228.180864 9.976518 204.390707 0 180.088933 0H179.065701c-24.81339 0-49.115164 9.976518-66.510118 27.371471l-79.044716 79.300525c-6.139395 6.139395-9.464901 14.325256-9.464901 23.022733 0 8.697477 3.325506 16.883337 9.464901 22.766925 12.534599 12.534599 33.255059 12.534599 45.789658 0l79.300524-79.300525c5.627779-5.627779 12.790407-8.441669 20.72046-8.441669 7.674244 0 15.09268 3.069698 20.72046 8.441669l118.183362 118.183363-100.020984 100.020984c-12.790407 12.534599-12.790407 32.999251-0.511617 46.045466 12.278791 12.534599 32.999251 12.790407 45.789658 0.255808l100.276793-100.276792 244.552585 244.552585-5.627779 6.651012c-50.650012 58.835873-78.277292 133.787659-78.021484 211.041719 0 178.809893 145.554834 324.364726 324.364727 324.364726 178.554084 0 323.85311-145.554834 323.85311-324.364726 0-179.321509-145.554834-324.876343-324.364727-324.876343z m-238.668998 425.408943c-34.278291-81.091182-25.325006-173.182113 24.045966-246.087434 27.883088-41.952536 67.277542-74.44017 114.090432-94.137397 32.487634-13.81364 67.021734-20.72046 101.044217-20.72046 50.905821 0 101.300025 15.09268 145.043217 44.510617 41.952536 28.138896 74.44017 67.53335 94.137397 114.090432 34.278291 81.091182 25.325006 173.182113-23.790157 246.087435-28.138896 41.952536-67.53335 74.44017-114.090432 94.137397-32.231826 13.557832-66.254309 20.72046-101.300025 20.720459-51.673245 0-101.811641-15.348489-145.043218-44.510617-41.952536-28.138896-74.44017-67.789158-94.137397-114.090432z" /></svg>