<?xml version="1.0" standalone="no"?><!DOCTYPE svg PUBLIC "-//W3C//DTD SVG 1.1//EN" "http://www.w3.org/Graphics/SVG/1.1/DTD/svg11.dtd"><svg class="icon" width="200px" height="200.00px" viewBox="0 0 1024 1024" version="1.1" xmlns="http://www.w3.org/2000/svg"><path d="M219.038911 602.96536l135.273028 0L354.311939 467.718938 219.038911 467.718938 219.038911 602.96536zM219.038911 804.987695l135.273028 0L354.311939 669.687038 219.038911 669.687038 219.038911 804.987695zM442.929321 602.96536l135.274051 0L578.203372 467.718938l-135.274051 0L442.929321 602.96536zM442.929321 804.987695l135.274051 0L578.203372 669.687038l-135.274051 0L442.929321 804.987695zM667.7755 602.96536l135.274051 0L803.049551 467.718938l-135.274051 0L667.7755 602.96536zM824.944233 64.709855l-20.938912 0 0 112.477837-135.300657 0L668.704663 64.709855l-313.435932 0 0 112.477837-135.273028 0L219.995703 64.709855l-20.966542 0c-74.311547 0-134.318283 60.060971-134.318283 134.318283l0 625.944747c0 74.311547 60.006735 134.318283 134.318283 134.318283l625.917118 0c74.311547 0 134.345912-60.006735 134.345912-134.318283L959.292191 199.028138C959.290145 125.699989 899.25578 64.709855 824.944233 64.709855zM820.194041 916.427898l-622.121672 0c-40.022569 0-89.545522-49.522953-89.545522-89.545522L108.526847 356.278735l805.034767 0 0 464.871074C914.517384 862.100518 861.172378 916.427898 820.194041 916.427898zM667.7755 804.987695l135.274051 0L803.049551 669.687038l-135.274051 0L667.7755 804.987695z" /></svg>