<?xml version="1.0" standalone="no"?><!DOCTYPE svg PUBLIC "-//W3C//DTD SVG 1.1//EN" "http://www.w3.org/Graphics/SVG/1.1/DTD/svg11.dtd"><svg class="icon" width="200px" height="200.00px" viewBox="0 0 1024 1024" version="1.1" xmlns="http://www.w3.org/2000/svg"><path d="M661.63712 917.73952c-16.27648-0.00512-32.10752-6.72768-42.3168-18.00704-13.92128-15.26272-58.03008-54.95296-94.14144-54.95296-35.85536 0-80.64512 39.92064-93.51168 53.89824-10.19392 11.08992-25.90208 17.69984-42.01984 17.69984-7.68 0-14.9248-1.46944-21.53984-4.37248l-1.15712-0.50688-109.7472-61.36832-1.09056-0.76288c-19.97312-13.98272-27.57632-41.344-17.67936-63.63648 0.0768-0.16384 10.12736-23.35232 10.12736-44.48768 0-64.13824-52.18816-116.33664-116.33664-116.33664h-3.88608l-0.70656 0.01536c-18.37568 0-33.33632-16.32256-38.12352-41.58976-0.37888-2.0224-9.35936-49.93536-9.35936-87.68512 0-37.75488 8.97536-85.67296 9.35936-87.69536 4.8384-25.58464 20.12672-42.01472 38.82496-41.5744h3.8912c64.14336 0 116.33664-52.18816 116.33664-116.33152 0-21.13024-10.04032-44.3136-10.14784-44.544-9.89184-22.26688-2.23744-49.61792 17.83296-63.55968l1.13664-0.78848 115.8144-63.62624 1.20832-0.512c6.52288-2.78016 13.66528-4.18816 21.23264-4.18816 16.08704 0 31.8208 6.47168 42.112 17.31584 13.71136 14.35136 57.0368 51.68128 92.11392 51.68128 34.7392 0 77.80352-36.59264 91.4688-50.69312 10.22976-10.61888 25.86112-16.98304 41.7792-16.98304 7.72096 0 14.99648 1.46432 21.632 4.34176l1.17248 0.512 111.86176 62.14656 1.11104 0.77312c20.01408 13.96736 27.63264 41.32352 17.73056 63.62624-0.07168 0.16896-10.12736 23.35744-10.12736 44.4928 0 64.14336 52.18816 116.33152 116.33664 116.33152h3.8912c18.67776-0.41472 33.98144 15.98976 38.82496 41.5744 0.384 2.02752 9.35936 49.93536 9.35936 87.69024s-8.97536 85.67296-9.36448 87.69024c-4.8384 25.58464-20.1472 41.95328-38.82496 41.56928h-3.88608c-64.14336 0-116.33664 52.19328-116.33664 116.34176 0 21.13024 10.04544 44.30336 10.14272 44.53376 9.8816 22.25664 2.24256 49.6128-17.792 63.5648l-1.11616 0.78848-113.75616 62.86848-1.18272 0.512c-6.51776 2.816-13.62944 4.23424-21.15072 4.23424z m-3.456-53.59104c0.512 0.32768 1.95072 0.896 3.456 0.896l0.17408-0.00512 106.27584-58.74176c-2.56512-5.95456-14.29504-34.88256-14.29504-65.0496 0-90.22976 71.0656-164.17792 160.16896-168.80128 1.28-7.08096 8.23808-46.91968 8.23808-76.8s-6.95808-69.69856-8.23808-76.8c-89.09824-4.62848-160.16896-78.57152-160.16896-168.80128 0-30.21312 11.77088-59.17696 14.3104-65.09056l-104.55552-58.0864c-0.11776-0.00512-0.27136-0.01536-0.44032-0.01536-1.78176 0-3.44576 0.65024-3.9936 1.024-1.76128 1.80736-16.91136 17.17248-38.6816 32.4864-32.2304 22.66624-62.69952 34.16576-90.57792 34.16576-28.13952 0-58.85952-11.7248-91.2896-34.8416-21.90336-15.61088-37.13024-31.27296-38.89152-33.11104-0.55808-0.37888-2.24256-1.04448-4.03968-1.04448a7.9872 7.9872 0 0 0-0.37376 0.01024L286.96064 185.02144c2.59584 6.03136 14.2848 34.90816 14.2848 65.024 0 90.22464-71.0656 164.1728-160.16896 168.80128-1.28 7.08608-8.23808 46.91456-8.23808 76.8 0 29.88032 6.95808 69.69856 8.24832 76.79488 89.09312 4.62848 160.15872 78.58176 160.15872 168.8064 0 30.27456-11.81184 59.28448-14.32576 65.1264l102.5024 57.31328c0.06144 0.01024 0.14336 0.01024 0.2304 0.01024 1.49504 0 2.91328-0.54784 3.42016-0.87552 1.92-2.05824 17.22368-18.26304 39.27552-34.432 32.86528-24.0896 64.1024-36.3008 92.83072-36.3008 29.00992 0 60.48256 12.44672 93.5424 36.99712 22.17984 16.4608 37.55008 32.9728 39.45984 35.06176z m-132.62336-214.16448c-85.4272 0-154.92608-69.504-154.92608-154.92608 0-85.4272 69.49888-154.92608 154.92608-154.92608 85.4272 0 154.9312 69.49888 154.9312 154.92608 0 85.42208-69.50912 154.92608-154.9312 154.92608z m0-257.15712c-56.3712 0-102.22592 45.85984-102.22592 102.22592 0 56.37632 45.85984 102.23616 102.22592 102.23616s102.23104-45.85984 102.23104-102.23616c0-56.36608-45.85984-102.22592-102.23104-102.22592z" /></svg>