<?xml version="1.0" standalone="no"?><!DOCTYPE svg PUBLIC "-//W3C//DTD SVG 1.1//EN" "http://www.w3.org/Graphics/SVG/1.1/DTD/svg11.dtd"><svg t="1532399268168" class="icon" style="" viewBox="0 0 1024 1024" version="1.1" xmlns="http://www.w3.org/2000/svg" p-id="1549" xmlns:xlink="http://www.w3.org/1999/xlink" width="200" height="200"><defs><style type="text/css"></style></defs><path d="M936.264796 854.339926 757.429759 675.519214c46.499034-63.167668 74.019831-141.124158 74.019831-225.397516 0-210.099089-170.944324-381.038296-381.054669-381.038296s-381.048529 170.939207-381.048529 381.038296c0 210.105229 170.939207 381.043413 381.048529 381.043413 84.275405 0 162.234965-27.519774 225.40468-74.018807l178.832991 178.818665c11.270694 11.264555 26.03598 16.902972 40.813544 16.902972 14.776542 0 29.54285-5.638417 40.818661-16.902972C958.801069 913.419486 958.801069 876.874151 936.264796 854.339926zM163.139567 450.121697c0-158.388357 128.86188-287.25126 287.256376-287.25126s287.261493 128.86188 287.261493 287.25126c0 158.390403-128.866996 287.252283-287.261493 287.252283S163.139567 608.512101 163.139567 450.121697z" p-id="1550" fill="#333333"></path></svg>