<?xml version="1.0" standalone="no"?><!DOCTYPE svg PUBLIC "-//W3C//DTD SVG 1.1//EN" "http://www.w3.org/Graphics/SVG/1.1/DTD/svg11.dtd"><svg class="icon" width="200px" height="200.00px" viewBox="0 0 1024 1024" version="1.1" xmlns="http://www.w3.org/2000/svg"><path d="M888.832 4.608H206.336c-40.448 0-72.704 32.768-72.704 72.704V942.08c0 40.448 32.768 72.704 72.704 72.704h452.608c6.656 0 12.288-2.56 16.896-7.168l279.04-281.6c4.096-4.096 7.168-10.752 7.168-16.896V77.312C961.536 37.376 929.28 4.608 888.832 4.608z m-322.56 803.84H241.152c-13.312 0-24.064-10.752-24.064-24.064s10.752-24.064 24.064-24.064h325.632c13.312 0 23.04 10.752 23.04 24.064s-10.24 24.064-23.552 24.064zM752.64 254.976c4.608 3.584 10.752 4.608 15.872 3.584h73.728l-11.264 31.232H742.4c-9.728 0.512-18.432-2.56-25.088-8.192l-17.92-11.264-25.6 13.312c-10.752 4.608-21.504 7.168-32.768 6.656h-78.336l11.264-31.232h67.072c5.12 0.512 10.752-0.512 15.36-3.584l13.312-6.144-56.32-39.424h68.608l31.232 19.456 78.848-38.4h-115.2c-6.656 7.68-15.36 10.24-28.16 9.728H593.92l10.24-28.16h30.72c6.144 0.512 12.288-2.56 18.432-8.192l14.848-14.848h39.936l-8.192 8.192h176.64l-11.776 34.816-120.832 56.32 8.704 6.144z m14.336 130.048h27.136l-9.728 27.136h-51.712c-12.288 1.536-16.896-4.608-13.824-19.456l1.536-40.96h39.424l-1.024 25.6c-1.024 6.656 1.536 9.728 8.192 7.68z m-72.192-40.96l-19.456 54.272c-5.12 14.336-13.824 20.992-25.088 20.992h-48.128l10.752-29.696h18.432c3.072 0.512 5.12-2.56 8.704-8.192l13.824-37.888h-109.568l11.264-33.28h110.592l6.144-17.92h41.472l-6.656 18.432h116.736l-11.264 33.28h-117.76z m-449.536 1.536l13.312-36.352h172.032l58.368-160.256h40.96L471.04 309.76h50.688l-13.312 35.84h-45.568L512 394.24l72.704-40.96v0.512h38.4l-63.488 65.536-72.704 69.632-64-122.368L365.568 409.6c-8.192 6.656-18.432 10.24-29.696 10.24h-117.76l11.264-33.28H332.8c5.12 2.56 12.288-0.512 18.944-6.656l44.032-34.304H245.248zM370.688 179.2h73.728l-12.288 34.304H339.456c-12.288 1.536-18.432-3.072-18.432-13.312l-3.584-47.616h39.936l3.584 19.456c-1.024 6.144 2.048 8.192 9.728 7.168z m-39.424 52.736l1.536 14.336c-1.024 5.12 1.536 7.168 10.24 6.656h74.752l-11.264 32.768H315.904c-15.36 1.024-22.528-3.072-21.504-13.312l-1.024-40.448h37.888z m-89.6 393.216c-13.312 0-24.064-10.752-24.064-24.064s10.752-24.064 24.064-24.064h610.304c13.312 0 24.064 10.752 24.064 24.064s-10.752 24.064-24.064 24.064H241.664z m432.64 316.416v-183.296c0-13.824 11.264-24.576 24.576-24.576h180.736l-205.312 207.872z" fill="#5A5A5A" /></svg>