<?xml version="1.0" standalone="no"?><!DOCTYPE svg PUBLIC "-//W3C//DTD SVG 1.1//EN" "http://www.w3.org/Graphics/SVG/1.1/DTD/svg11.dtd"><svg class="icon" width="200px" height="200.00px" viewBox="0 0 1024 1024" version="1.1" xmlns="http://www.w3.org/2000/svg"><path d="M511.426 65.377h-0.56c-0.174 0-0.349 0.034-0.522 0.034-246.51 0.577-446.132 200.566-446.132 447.179 0 246.579 199.622 446.602 446.131 447.178 0.174 0 0.349 0.036 0.522 0.036h0.56c246.946 0 447.214-200.268 447.214-447.214 0-246.982-200.267-447.213-447.213-447.213z m0 858.649h-0.515c-0.157 0-0.324-0.036-0.481-0.036-226.785-0.524-410.44-184.545-410.44-411.401 0-226.891 183.655-410.878 410.44-411.402 0.157 0 0.324-0.034 0.481-0.034h0.515c227.188 0 411.436 184.213 411.436 411.436 0 227.189-184.248 411.437-411.436 411.437z"  /><path d="M653.888 331.66c-40.119 9.765-81.783 15.443-124.574 16.683v146.359H674.85c-1.292-60.271-8.821-115.28-20.962-163.042zM529.314 139.621v176.055c39.716-1.241 78.384-6.499 115.664-15.495-28.133-89.059-72.078-147.423-115.664-160.56zM376.929 299.936c37.568 9.136 76.559 14.483 116.608 15.704V139.219c-43.873 12.507-88.246 71.099-116.608 160.717zM779.421 249.083c-48.643-49.455-110.807-85.477-180.431-102.178 31.732 32.965 58.574 83.153 77.686 144.663 35.865-10.865 70.209-25.155 102.745-42.485zM707.763 494.701h179.2c-3.948-83.522-35.149-160-85.024-220.637-36.677 20.176-75.615 36.686-116.397 49.018 13.077 51.675 20.919 109.849 22.221 171.619zM346.978 494.701h146.559V348.343c-43.149-1.258-85.119-7.021-125.569-16.892-12.14 47.796-19.688 102.911-20.99 163.25zM674.85 530.479H529.314v146.183c42.809 1.258 84.464 6.951 124.626 16.717 12.089-47.725 19.618-102.702 20.91-162.9zM367.951 693.606c40.45-9.905 82.438-15.686 125.587-16.944V530.479h-146.56c1.302 60.286 8.832 115.348 20.973 163.127zM493.537 885.944V709.346c-40.065 1.24-79.066 6.569-116.66 15.704 28.353 89.724 72.751 148.386 116.66 160.894zM598.981 878.275c69.676-16.701 131.894-52.775 180.528-102.283a571.755 571.755 0 0 0-102.78-42.537c-19.138 61.595-45.98 111.837-77.748 144.82zM422.568 147.22c-69.109 16.805-130.81 52.721-179.13 101.863a570.424 570.424 0 0 0 101.795 42.206c19.049-61.195 45.76-111.157 77.335-144.069zM685.569 701.956c40.816 12.316 79.763 28.842 116.476 49.054 49.821-60.635 80.971-137.082 84.919-220.532h-179.2c-1.303 61.684-9.129 119.822-22.195 171.478zM529.314 709.346v176.213c43.603-13.137 87.573-71.572 115.7-160.736-37.298-8.96-75.975-14.237-115.7-15.477zM336.322 322.891c-40.458-12.264-79.092-28.684-115.497-48.739-49.832 60.619-81.005 137.098-84.928 220.55h178.17c1.3-61.825 9.162-120.085 22.255-171.811zM314.067 530.479h-178.17c3.923 83.486 35.096 159.931 84.928 220.55a603.684 603.684 0 0 1 115.497-48.775c-13.093-51.709-20.955-109.969-22.255-171.775zM243.325 775.974c48.355 49.193 110.083 85.164 179.243 101.986-31.602-32.913-58.32-82.944-77.372-144.226a570.201 570.201 0 0 0-101.871 42.24z"  /></svg>