<?xml version="1.0" standalone="no"?><!DOCTYPE svg PUBLIC "-//W3C//DTD SVG 1.1//EN" "http://www.w3.org/Graphics/SVG/1.1/DTD/svg11.dtd"><svg t="1533890779174" class="icon" style="" viewBox="0 0 1024 1024" version="1.1" xmlns="http://www.w3.org/2000/svg" p-id="3638" xmlns:xlink="http://www.w3.org/1999/xlink" width="200" height="200"><defs><style type="text/css"></style></defs><path d="M468.272 15.467a108.04 108.04 0 0 0-49.3 18.367 118.106 118.106 0 0 0-53.566 3.184 125.1 125.1 0 0 0-80.576 110.43c-2.73 27.01-3.355 102.695-1.592 143.125 5.686 24.224-13.648 24.224-13.648 24.224-34.459-2.16-18.992 103.492-18.992 103.492a55.613 55.613 0 0 0 49.244 59.138 216.821 216.821 0 0 0 87.74 104.174s0.342 42.022 1.251 73.184c-5.174-2.56 17.742 79.609-140.623 102.354S59.422 830.664 29.57 858.811s-28.433 164.45-28.433 164.45l1022.408 0.625s-7.563-136.814-37.416-164.904-62.55-78.643-220.858-101.672C611.227 735.417 636.53 654.5 635.508 649.667c0-12.283 1.933-64.256 1.933-64.256a267.259 267.259 0 0 0 78.074-109.917c38.27-23.77 52.77-27.068 59.081-54.419 0 0 11.373-106.79-24.85-106.221 0 0-17.058 5.402-11.372-18.822a655.694 655.694 0 0 0 0.91-126.92c-2.73-26.953 1.365-104.003-56.125-114.75a352.554 352.554 0 0 0-63.516-2.787C600.537 48.903 577.677 0.057 542.138 0.057z m0 0" p-id="3639"></path></svg>