<?xml version="1.0" standalone="no"?><!DOCTYPE svg PUBLIC "-//W3C//DTD SVG 1.1//EN" "http://www.w3.org/Graphics/SVG/1.1/DTD/svg11.dtd"><svg class="icon" width="200px" height="199.80px" viewBox="0 0 1025 1024" version="1.1" xmlns="http://www.w3.org/2000/svg"><path d="M511.799722 610.721255c202.164189 0 368.368599 153.949717 387.784436 351.010794l60.497853 0C945.020234 779.984557 821.785874 629.215918 654.984348 573.250623c72.105493-50.821809 119.33823-134.621003 119.33823-229.576283 0-155.154574-125.784322-280.938896-280.934646-280.938896S212.454349 188.520829 212.454349 343.67434c0 100.724569 53.152899 188.7907 132.788218 238.384277-154.512833 61.879082-266.699482 206.802995-281.00902 379.673431l59.781738 0C143.431123 764.670971 309.63447 610.721255 511.799722 610.721255zM273.20401 343.67434c0-121.624696 98.564538-220.187109 220.184984-220.187109 121.622571 0 220.186047 98.564538 220.186047 220.187109 0.001062 121.623634-98.561351 220.187109-220.186047 220.187109C371.766424 563.86145 273.20401 465.293724 273.20401 343.67434z" /></svg>