<?xml version="1.0" standalone="no"?><!DOCTYPE svg PUBLIC "-//W3C//DTD SVG 1.1//EN" "http://www.w3.org/Graphics/SVG/1.1/DTD/svg11.dtd"><svg class="icon" width="200px" height="200.00px" viewBox="0 0 1024 1024" version="1.1" xmlns="http://www.w3.org/2000/svg"><path d="M1017.6 520.576c0-6.784-2.56-13.568-7.168-18.56l-108.288-119.552-1.664-215.296c-0.128-15.104-12.544-27.392-27.648-27.392l-140.8 0c-15.232 0-27.648 12.416-27.648 27.648l0 36.352L522.368 26.624c-11.008-10.624-28.288-10.496-39.04 0.384L16.512 501.248c-4.864 4.992-7.68 11.52-7.936 18.432L6.4 579.584c-0.256 7.552 2.56 14.976 7.808 20.352s11.648 7.68 20.096 8.32l86.272-0.896 0 370.176c0 15.232 12.416 27.648 27.648 27.648l249.6 0c15.232 0 27.648-12.416 27.648-27.648l0-190.72 172.288 0 0 190.592c0 15.232 12.416 27.648 27.648 27.648l249.6 0c15.232 0 27.648-12.416 27.648-27.648L902.656 609.152l87.168-0.896c15.104-0.128 27.392-12.544 27.392-27.648L1017.6 520.576zM875.008 553.984c-15.104 0.128-27.392 12.544-27.392 27.648L847.616 949.76 653.312 949.76 653.312 764.8c0-18.304-14.976-33.28-33.408-33.28L403.584 731.52c-18.304 0-33.28 14.976-33.28 33.28L370.304 949.76 176 949.76 176 579.328c0-7.296-2.944-14.592-8.192-19.712-5.12-5.12-12.16-7.936-19.456-7.936-0.128 0-0.256 0-0.256 0l-85.376 0.896 0.768-20.224L503.424 85.376l209.152 203.776c7.936 7.68 19.84 9.984 30.08 5.632 10.24-4.352 16.896-14.464 16.896-25.472l0-74.368 85.76 0 1.536 198.272c0 6.784 2.688 13.312 7.168 18.304l108.16 119.552 0 21.888L875.008 553.984z" /></svg>