<?xml version="1.0" standalone="no"?><!DOCTYPE svg PUBLIC "-//W3C//DTD SVG 1.1//EN" "http://www.w3.org/Graphics/SVG/1.1/DTD/svg11.dtd"><svg t="1533890910702" class="icon" style="" viewBox="0 0 1024 1024" version="1.1" xmlns="http://www.w3.org/2000/svg" p-id="3856" xmlns:xlink="http://www.w3.org/1999/xlink" width="200" height="200"><defs><style type="text/css"></style></defs><path d="M899.288 881.24h-784.67V140.186h195.477V52.997H114.619c-48.15-0.001-87.19 39.04-87.19 87.189V881.24c0 48.15 39.04 87.19 87.19 87.19h784.669c48.148 0 87.148-39.04 87.148-87.19V700.67h-87.148v180.57z m-468.05-631.426M996.571 94.171c0 22.302-18.06 41.143-40.382 41.143H552.382c-22.321 0-40.382-18.841-40.382-41.143 0-22.299 18.06-41.142 40.382-41.142H956.19c22.322 0 40.382 18.843 40.382 41.142z" p-id="3857"></path><path d="M996.571 498.765c0 22.3-17.91 40.38-40.228 40.38-22.322 0-40.229-18.08-40.229-40.38V94.955c0-22.3 17.907-40.381 40.229-40.381 22.318 0 40.228 18.08 40.228 40.38v403.81z" p-id="3858"></path><path d="M406.75 695.188c-15.774 15.733-41.328 15.773-57.142 0-15.773-15.812-15.773-41.366 0-57.14L887.26 100.455c15.733-15.773 41.288-15.793 57.101 0 15.775 15.773 15.775 41.328 0 57.103l-537.61 537.63z" p-id="3859"></path></svg>