<?xml version="1.0" standalone="no"?><!DOCTYPE svg PUBLIC "-//W3C//DTD SVG 1.1//EN" "http://www.w3.org/Graphics/SVG/1.1/DTD/svg11.dtd"><svg class="icon" width="200px" height="200.00px" viewBox="0 0 1024 1024" version="1.1" xmlns="http://www.w3.org/2000/svg"><path fill="#333333" d="M512 0c144.768 3.84 265.344 53.888 361.728 150.272C970.112 246.698667 1020.16 367.232 1024 512c-3.84 144.768-53.888 265.344-150.272 361.728C777.301333 970.112 656.768 1020.16 512 1024c-144.768-3.84-265.344-53.888-361.728-150.272C53.888 777.301333 3.84 656.768 0 512c3.84-144.768 53.888-265.344 150.272-361.728C246.698667 53.888 367.232 3.84 512 0z m-64 612.565333l-113.152-113.152a45.184 45.184 0 0 0-31.402667-12.544 42.24 42.24 0 0 0-30.890666 13.141334 41.6 41.6 0 0 0-13.141334 30.293333c0 11.392 4.224 21.674667 12.586667 30.848l145.152 145.152a41.941333 41.941333 0 0 0 30.848 12.544 41.941333 41.941333 0 0 0 30.848-12.544l300.586667-300.586667c11.434667-11.434667 15.061333-25.344 10.837333-41.728a40.064 40.064 0 0 0-30.848-30.848c-16.384-4.181333-30.293333-0.554667-41.728 10.88L448 612.565333z" /></svg>