<?xml version="1.0" standalone="no"?><!DOCTYPE svg PUBLIC "-//W3C//DTD SVG 1.1//EN" "http://www.w3.org/Graphics/SVG/1.1/DTD/svg11.dtd"><svg class="icon" width="200px" height="200.00px" viewBox="0 0 1024 1024" version="1.1" xmlns="http://www.w3.org/2000/svg"><path fill="#333333" d="M478.9 718.2c0-48 13-89.7 35.7-128.1 0-6.4 0-16 6.5-25.6 25.9-35.2 42.1-73.7 42.1-86.5 0 0 38.9-32 42.1-76.9 3.2-48-9.7-48-9.7-48 16.2-51.2 22.7-243.4-100.5-217.8-19.4-41.7-149.1-73.7-210.7 35.2-29.2 54.5-42.1 124.9-19.5 185.8 0 3.2-9.7-3.2-9.7 22.4-3.2 25.6 9.7 64.1 22.7 83.3 6.5 3.2 16.2 9.6 22.7 12.8 0 0 6.5 48 45.4 92.9 9.7 35.2-25.9 54.5-25.9 54.5C203.3 644.5 96.3 708.6 96.3 779v54.4c0 76.9 178.3 92.9 337.2 92.9 48.6 0 97.3-3.2 142.7-12.8-61.6-48-97.3-115.2-97.3-195.3z m243.2-201.8c-113.5 0-204.3 89.7-204.3 201.8 0 112.1 90.8 201.8 204.3 201.8 113.5 0 204.3-89.7 204.3-201.8-0.1-112.1-90.8-201.8-204.3-201.8z m113.5 144.1L725.3 820.7c-6.5 6.4-13 12.8-19.5 12.8s-16.2-3.2-19.5-9.6l-64.8-64.1c-6.5-6.4-6.5-19.2 0-25.6l16.2-16c6.5-6.4 19.5-6.4 25.9 0l35.7 35.2 84.3-124.9c6.5-9.6 19.5-9.6 25.9-6.4l19.5 12.8c3.2 3.2 6.5 6.4 9.7 12.8 0.1 3.2 0.1 9.6-3.1 12.8z" /></svg>