<?xml version="1.0" standalone="no"?><!DOCTYPE svg PUBLIC "-//W3C//DTD SVG 1.1//EN" "http://www.w3.org/Graphics/SVG/1.1/DTD/svg11.dtd"><svg class="icon" width="200px" height="200.00px" viewBox="0 0 1024 1024" version="1.1" xmlns="http://www.w3.org/2000/svg"><path fill="#333333" d="M433.6 492.1c-2.9 0-5.8-0.9-8.3-2.8L371.9 449c-6-4.6-7.3-13.1-2.8-19.2 0.1-0.1 10.2-13.9 20.4-27.5 6-8 10.9-14.5 14.5-19.1 7.3-9.5 9.3-12 13.9-13.6 7.2-2.4 15.1 1.5 17.5 8.7 1.8 5.4 0.1 11.1-3.9 14.7-3.3 3.8-17.4 22.6-31.9 42.2l42.5 32.1c6.1 4.6 7.3 13.3 2.7 19.4-2.9 3.5-7.1 5.4-11.2 5.4z m-7.1-96.4s0 0.1 0 0c0 0.1 0 0 0 0z m0 0z m0.1 0c-0.1 0-0.1 0 0 0-0.1 0-0.1 0 0 0zM513 98.2c-228.8 0-414.9 186.1-414.9 414.9 0 23.9 2.6 48.2 6.5 71 0 0.1 0.2 0.1 0.3 0.2 1.7 5.8 6.8 10.1 13.1 10.1 7.6 0 13.8-6.2 13.8-13.8 0-0.5-0.2-0.9-0.3-1.3l0.2-0.1c-3.7-21.5-6-43.5-6-66 0-213.9 173.4-387.2 387.2-387.2s387.2 173.4 387.2 387.2S726.9 900.4 513 900.4c-142.9 0-267.4-77.6-334.5-192.8 0-0.1-0.1-0.1-0.1-0.2l-0.6-0.9c-2.3-4.3-6.8-7.4-12-7.4-7.6 0-13.8 6.2-13.8 13.8 0 3 1.2 5.6 2.8 7.9l-0.2 0.1C226.4 844.5 360 928 513 928c228.8 0 414.9-186.1 414.9-414.9S741.8 98.2 513 98.2zM596 416.7H380v27.7h216c50.8 0 92.2 41.4 92.2 92.2s-41.4 92.2-92.2 92.2H393.8v27.7H596c66.1 0 119.9-53.8 119.9-119.8s-53.8-120-119.9-120zM380 642.6a13.8 13.8 0 1 0 27.6 0 13.8 13.8 0 1 0-27.6 0z" /></svg>