<?xml version="1.0" standalone="no"?><!DOCTYPE svg PUBLIC "-//W3C//DTD SVG 1.1//EN" "http://www.w3.org/Graphics/SVG/1.1/DTD/svg11.dtd"><svg class="icon" width="200px" height="200.00px" viewBox="0 0 1024 1024" version="1.1" xmlns="http://www.w3.org/2000/svg"><path fill="#333333" d="M478.338854 905.124566c-101.116979 77.775364-247.183705 70.8967-340.102978-20.962427-92.885504-91.855034-99.832729-236.317217-21.188578-336.307535l-1.575892-1.545192L548.235784 118.334105c75.464739-74.625628 197.835787-74.625628 273.329179 0 75.458599 74.658374 75.458599 195.675588 0 270.302239L411.558915 794.072307c-50.314942 49.742914-131.887796 49.742914-182.203762 0-50.321082-49.770544-50.321082-130.440841 0-180.211385l364.444363-360.355231 45.526893 45.041846L274.911722 658.906861c-25.173332 24.883737-25.173332 65.234747 0 90.089831 25.143657 24.917506 65.946968 24.917506 91.119277 0l409.972279-405.403217c50.313919-49.770544 50.313919-130.439818 0-180.211385-50.316989-49.741891-131.889843-49.741891-182.204785 0L183.793468 568.819077c-75.459622 74.65428-75.459622 195.675588 0 270.301216 75.492368 74.625628 197.862393 74.625628 273.323039 0L912.649448 388.635321l45.556569 45.046962L479.880977 906.700457 478.338854 905.124566 478.338854 905.124566zM478.338854 905.124566" /></svg>