<?xml version="1.0" standalone="no"?><!DOCTYPE svg PUBLIC "-//W3C//DTD SVG 1.1//EN" "http://www.w3.org/Graphics/SVG/1.1/DTD/svg11.dtd"><svg class="icon" width="200px" height="200.00px" viewBox="0 0 1024 1024" version="1.1" xmlns="http://www.w3.org/2000/svg"><path fill="#333333" d="M726.613 187.087C669.28 129.76 593.047 98.18 511.967 98.18c-81.087 0-157.307 31.58-214.647 88.907-57.327 57.333-88.907 133.566-88.907 214.646 0 54.147 14.44 107.314 41.767 153.727 24.1 40.96 57.64 75.84 97.507 101.567v150.726c0 37.474 30.48 67.96 67.953 67.96H607.9c37.473 0 67.973-30.486 67.973-67.96V657.247c39.954-25.687 73.58-60.574 97.767-101.58 27.393-46.474 41.867-99.714 41.867-153.94 0.006-81.074-31.554-157.3-88.894-214.64z m-118.7 640.08h-192.26c-10.706 0-19.42-8.707-19.42-19.42V741.78h231.12v65.967c0 10.72-8.733 19.42-19.44 19.42z m123.907-296.16c-22.34 37.9-54.273 69.58-92.367 91.62l-12.106 7.013v63.593H396.233V629.44l-12.08-7.02c-37.993-22.067-69.846-53.733-92.133-91.58-22.933-38.98-35.053-83.62-35.053-129.12 0-68.12 26.52-132.153 74.693-180.32s112.2-74.68 180.307-74.68c68.12 0 132.166 26.52 180.326 74.693 48.16 48.174 74.68 112.2 74.68 180.32 0.007 45.567-12.153 90.274-35.153 129.274zM605.06 905.92H418.88c-13.413 0-24.273 10.86-24.273 24.273 0 13.4 10.86 24.26 24.273 24.26h186.18c13.413 0 24.287-10.86 24.287-24.26-0.007-13.413-10.887-24.273-24.287-24.273z" /></svg>