<?xml version="1.0" standalone="no"?><!DOCTYPE svg PUBLIC "-//W3C//DTD SVG 1.1//EN" "http://www.w3.org/Graphics/SVG/1.1/DTD/svg11.dtd"><svg class="icon" width="200px" height="200.00px" viewBox="0 0 1024 1024" version="1.1" xmlns="http://www.w3.org/2000/svg"><path fill="#333333" d="M398.647 954.199L179.278 680.186s-11.085-102.239 87.737-59.17c57.017 25.586 77.367 79.298 77.367 79.298l2.043-417.39s58.947-87.901 110.234 0l0.934 264.254s63.75-86.742 138.747 6.064c0 0 56.248-94.518 135.27 4.577 0 0 56.03-109.298 112.278 9.485v331.75s-3.256 25.862-48.862 55.145H398.647z m0 0M400.576 71C278.208 71 178.95 170.259 178.95 292.626c0 82.111 45.164 152.972 111.502 191.245v-68.489c-34.299-30.386-56.357-74.228-56.357-123.636 0-91.43 74.166-165.602 165.597-165.602 91.433 0 165.602 74.171 165.602 165.602 0 48.415-21.175 91.595-54.265 121.871v70.086c66.121-38.379 111.174-109.13 111.174-191.077C622.203 170.259 522.944 71 400.576 71z m0 0" /></svg>