<?xml version="1.0" standalone="no"?><!DOCTYPE svg PUBLIC "-//W3C//DTD SVG 1.1//EN" "http://www.w3.org/Graphics/SVG/1.1/DTD/svg11.dtd"><svg class="icon" width="200px" height="200.00px" viewBox="0 0 1024 1024" version="1.1" xmlns="http://www.w3.org/2000/svg"><path fill="#333333" d="M154.70743666 670.74275555v233.98779222a44.66156999 44.66156999 0 0 0 44.66157113 44.1761189h272.82393998v-278.16391112zM551.80705223 948.90666667h272.82393998a44.66156999 44.66156999 0 0 0 44.66157113-44.1761189v-233.98779222h-317.48551111zM905.216 273.64314112h-89.32314112a136.89742222 136.89742222 0 0 0 14.07810446-59.71057778A139.3246811 139.3246811 0 0 0 690.6462811 75.09333333 204.37523001 204.37523001 0 0 0 512 199.85445888 204.37523001 204.37523001 0 0 0 333.3537189 75.09333333a139.3246811 139.3246811 0 0 0-139.32468224 138.83923001 136.89742222 136.89742222 0 0 0 14.07810446 59.71057778H118.784c-24.27259221 0-43.69066667 28.64165888-43.69066667 63.59419221v190.78257778c0 34.95253333 19.41807445 63.59419221 43.69066667 63.59419222h353.40894777V273.64314112h79.61410446v317.97096221h353.40894777c24.27259221 0 43.69066667-28.64165888 43.69066667-63.59419222V337.23733333c0-34.95253333-19.41807445-63.59419221-43.69066667-63.59419221z m-571.8622811 0a59.71057778 59.71057778 0 1 1 0-118.93570446c67.96325888 0 106.31395555 69.90506667 125.24657777 118.93570446z m357.2925622 0H565.39970333c18.93262222-48.54518557 57.2833189-118.93570333 125.24657777-118.93570446a59.71057778 59.71057778 0 1 1 0 118.93570446z" /></svg>