<svg id="レイヤー_1" data-name="レイヤー 1" xmlns="http://www.w3.org/2000/svg" viewBox="0 0 234 11.2"><defs><style>.cls-1{fill:#040000;}</style></defs><title>logo_typo</title><path class="cls-1" d="M.5.6h2l.3.2L4.1,2.4c.6.8,4.2,4.8,5.3,5.9s.2-.1.2-.1,0-2.2,0-4.5a10.3,10.3,0,0,0-.1-1.6c0-.3-.1-.7-1-1S8,.9,8,.8s.2-.1.4-.1h2.9c.4,0,.4,0,.4.2s-.1.2-.4.3-1,.3-1,1.2-.2,3.7-.2,6.5c0,.7.1,1.9.1,2.1s-.1.3-.2.3l-.7-.5-1-1.3C6.8,7.6,4,4.5,2.6,2.7H2.4c0,.4-.1.9-.1,2.1V9.3c.1.7.2,1,1,1.2s.4.2.4.3-.2.2-.5.2H.5c-.2,0-.4,0-.4-.2s.2-.2.3-.3S1.5,10.2,1.5,9s.3-5.2.3-6.5-.1-.7-.1-.8A2.2,2.2,0,0,0,.4,1C.2,1,0,.9,0,.8S.2.6.5.6Z"/><path class="cls-1" d="M16.2,2.2c0-.7,0-1-.9-1.1s-.5-.2-.5-.3.2-.2.4-.2h3.5c.3,0,.4.1.4.2s-.2.2-.4.3-.9.6-1,1a46,46,0,0,0-.1,4.7V9.2c0,.9.1,1.2,1.2,1.4s.4.2.4.3-.2.2-.4.2H15.1c-.3,0-.4-.1-.4-.2s.2-.2.5-.3.9-.4.9-1.2.1-2.2.1-3.6S16.3,2.7,16.2,2.2Z"/><path class="cls-1" d="M26.6,1h-.4c-.1,0-.1.2-.2.6s0,2.3,0,4.2V9.1c0,1,.1,1.2,1,1.4s.4.2.4.3-.3.2-.5.2H23.6c-.3,0-.5-.1-.5-.2s.2-.2.3-.3,1.1-.5,1.1-1.2.1-2.1.1-2.9V2c0-.5,0-.8-.9-.9s-.6-.2-.6-.3.2-.2.4-.2h3.2a4.2,4.2,0,0,1,3,.9,3,3,0,0,1,.9,2.2,3,3,0,0,1-1.1,2.5,3.1,3.1,0,0,1-1.8.7h-.8l-.3-.3h.6c.8,0,2-.8,2-2.6A2.7,2.7,0,0,0,26.6,1Z"/><path class="cls-1" d="M37.3,1h-.5c-.1,0-.1.2-.2.6s0,2.3,0,4.2V9.1c0,1,.1,1.2,1,1.4s.4.2.4.3-.3.2-.5.2H34.3c-.3,0-.5-.1-.5-.2s.2-.2.3-.3,1-.5,1.1-1.2.1-2.1.1-2.9V2.1c0-.5,0-.8-.9-.9s-.6-.2-.6-.3.2-.2.4-.2h3.2a4.2,4.2,0,0,1,3,.9,3,3,0,0,1,.9,2.2,3,3,0,0,1-1.2,2.5,3.1,3.1,0,0,1-1.8.7h-.8l-.3-.3h.6c.8,0,2-.8,2-2.6A2.7,2.7,0,0,0,37.3,1Z"/><path class="cls-1" d="M56.2,5.6a5.6,5.6,0,0,1-2.3,4.7,5.9,5.9,0,0,1-3.2.9,5.6,5.6,0,0,1-4.2-1.8,5.4,5.4,0,0,1-1.3-3.6,5.3,5.3,0,0,1,2.1-4.3A5.8,5.8,0,0,1,50.7.3a5.4,5.4,0,0,1,5.6,5.1ZM48.1,1.8a5.1,5.1,0,0,0-1.3,3.8c0,2.4,1.8,5.1,4.3,5.1a2.7,2.7,0,0,0,2.1-.8,5.1,5.1,0,0,0,1.4-3.8,5.7,5.7,0,0,0-1.9-4.4A4.2,4.2,0,0,0,50.3.9,3.5,3.5,0,0,0,48.1,1.8Z"/><path class="cls-1" d="M60,.6h2l.3.2,1.3,1.6c.6.8,4.3,4.8,5.3,5.9s.2-.1.2-.1S69,6,69,3.7A10.3,10.3,0,0,0,69,2.1c0-.3-.1-.7-1-1s-.4-.2-.4-.4.2-.1.4-.1h2.9c.4,0,.4,0,.4.2s-.1.2-.4.3-1,.3-1,1.2-.2,3.7-.2,6.5c0,.7.1,1.9.1,2.1s-.1.3-.2.3l-.7-.5-1-1.3L62.1,2.7h-.2c0,.4-.1.9-.1,2.1V9.3c.1.7.2,1,1,1.2s.4.2.4.3-.2.2-.5.2H60c-.2,0-.4,0-.4-.2s.2-.2.3-.3S60.9,10.2,61,9s.3-5.2.3-6.5-.1-.7-.1-.8-.6-.5-1.3-.7-.4-.1-.4-.3S59.6.6,60,.6Z"/><path class="cls-1" d="M89.7,2a5.3,5.3,0,0,1,1.5,3.6,5.5,5.5,0,0,1-2.6,4.6,7.8,7.8,0,0,1-3.8.9h-4c-.3,0-.5-.1-.5-.2s.2-.2.4-.2,1.2-.4,1.2-1.7V6.6c0-.9,0-2.8-.1-4.1s0-1.2-1-1.4-.4-.1-.4-.3.1-.2.4-.2h.5l4-.2A6.7,6.7,0,0,1,89.7,2Zm-6.3-.9-.2.2c0,.1-.1,1.6-.1,3V6.7c0,1.1,0,2.1.1,2.8a1.1,1.1,0,0,0,.4.8,2.8,2.8,0,0,0,1.3.4,5.2,5.2,0,0,0,3-1,5.2,5.2,0,0,0,1.7-4A4.8,4.8,0,0,0,87.9,2a6,6,0,0,0-3.4-1Z"/><path class="cls-1" d="M100,.6h1.5V2.3c0,.3-.1.4-.2.4s-.2-.2-.3-.4-.6-1-1.1-1.1H97.8s-.2.1-.2.5-.1,3.4,0,3.7,0,.2.1.2h1c1.5,0,1.6-.1,1.9-.8s.2-.3.3-.3.1.2.1.4V6.8c0,.4-.1.5-.2.5s-.2-.2-.3-.4-.3-.8-1.3-.8H97.5c-.1.3,0,1.8,0,2.5a4.9,4.9,0,0,0,.2,1.3.5.5,0,0,0,.3.4h3a2,2,0,0,0,1.3-1.2c.2-.4.3-.5.4-.5s.2.3.1.4a12.6,12.6,0,0,1-.6,1.7l-.3.2h-7c-.3,0-.5,0-.5-.2s.2-.2.5-.3,1.1-.3,1.2-1.2.1-2.6.1-4.5V2.2c0-.7-.2-.9-.9-1.1s-.5-.1-.5-.3.2-.2.5-.2H100Z"/><path class="cls-1" d="M112.2.6c.1,0,.2.3.2.3s.2,1.2.2,1.3,0,.4-.1.4a.4.4,0,0,1-.4-.3,2.6,2.6,0,0,0-.8-1.2,1.8,1.8,0,0,0-1.1-.4,1.8,1.8,0,0,0-1.8,1.8s0,.1,0,.1.8,1.6,2.2,2.6,2.2,1.7,2.2,3.1a2.8,2.8,0,0,1-1.3,2.3,4.5,4.5,0,0,1-2.2.6,6.4,6.4,0,0,1-2.1-.4l-.4-.5c-.1-.5-.2-1.3-.2-1.5l.2-.3a2.7,2.7,0,0,1,.6.9,2.5,2.5,0,0,0,2.1,1.3,1.9,1.9,0,0,0,1.9-1.8s0-.1,0-.1-.3-1.4-2-2.5-2.3-1.8-2.3-3.2a2.6,2.6,0,0,1,.9-2,3.4,3.4,0,0,1,2.3-.8Z"/><path class="cls-1" d="M117.7,2.2c0-.7,0-1-.9-1.1s-.5-.2-.5-.3.2-.2.4-.2h3.5c.3,0,.4.1.4.2s-.2.2-.4.3-.9.6-1,1a46,46,0,0,0-.1,4.7V9.2c0,.9.1,1.2,1.2,1.4s.4.2.4.3-.2.2-.4.2h-3.6c-.3,0-.4-.1-.4-.2s.2-.2.5-.3.9-.4.9-1.2.1-2.2.1-3.6S117.7,2.7,117.7,2.2Z"/><path class="cls-1" d="M132.6.7h.6c.2.1.2.1.2.4s.2,1.1.2,1.8-.1.4-.2.4-.2-.1-.3-.4a4.1,4.1,0,0,0-.6-1.1,3.4,3.4,0,0,0-2.6-1c-2.7,0-4.3,2.3-4.3,4.8a5.7,5.7,0,0,0,.7,2.9,4.5,4.5,0,0,0,3.9,2.2,3.5,3.5,0,0,0,1.4-.4,1.6,1.6,0,0,0,.3-.8V7.9c-.1-.4-.2-.7-1.4-.8s-.4-.1-.4-.3.2-.2.5-.2h3.4c.3,0,.4.1.4.2s-.2.2-.4.3-.5.3-.6.5a15.3,15.3,0,0,0-.1,2,.6.6,0,0,0,.2.5c.3.2.3.2.3.3s-.1.2-.2.2l-1.5.4-2.2.3a6.3,6.3,0,0,1-4.3-1.5A5.4,5.4,0,0,1,124,5.9a5.2,5.2,0,0,1,1.8-4A6.3,6.3,0,0,1,129.9.3,11.9,11.9,0,0,1,132.6.7Z"/><path class="cls-1" d="M138.2.6h2l.3.2,1.3,1.6c.6.8,4.2,4.8,5.3,5.9s.2-.1.2-.1,0-2.2,0-4.5a10.3,10.3,0,0,0-.1-1.6c0-.3-.1-.7-1-1s-.4-.2-.4-.4.2-.1.4-.1h2.9c.4,0,.4,0,.4.2s-.1.2-.4.3-1,.3-1,1.2-.2,3.7-.2,6.5c0,.7.1,1.9.1,2.1s-.1.3-.2.3l-.7-.5-1-1.3-5.7-6.7h-.2c0,.4-.1.9-.1,2.1V9.3c.1.7.2,1,1,1.2s.4.2.4.3-.2.2-.5.2h-2.7c-.2,0-.4,0-.4-.2s.2-.2.3-.3,1.1-.3,1.1-1.5.3-5.2.3-6.5-.1-.7-.1-.8-.6-.5-1.3-.7-.4-.1-.4-.3S137.9.6,138.2.6Z"/><path class="cls-1" d="M166.9.6l1.2.3c.1,0,.2.1.2.5s.1,1,.1,1.4-.1.5-.2.5-.2-.2-.3-.4a2.5,2.5,0,0,0-.7-1.2,4,4,0,0,0-2.6-.8,4.3,4.3,0,0,0-4.2,4.4h0a5.8,5.8,0,0,0,.6,2.7,4.6,4.6,0,0,0,4,2.6,3.7,3.7,0,0,0,1.7-.4,3.6,3.6,0,0,0,1.5-1.6l.3-.4c.1,0,.2.4.1.5a5.8,5.8,0,0,1-.6,1.6l-.5.4a9.8,9.8,0,0,1-2.9.4,6.2,6.2,0,0,1-4.5-1.8,5.4,5.4,0,0,1-1.3-3.7,5.3,5.3,0,0,1,1.8-3.8A6.6,6.6,0,0,1,165,.3Z"/><path class="cls-1" d="M177.9.6h1.5V2.3c0,.3-.1.4-.2.4s-.2-.2-.3-.4-.6-1-1.1-1.1h-2.2s-.2.1-.2.5-.1,3.4,0,3.7,0,.2.1.2h1c1.5,0,1.6-.1,1.9-.8s.2-.3.3-.3.1.2.1.4V6.8c0,.4-.1.5-.2.5s-.2-.2-.3-.4-.3-.8-1.3-.8h-1.7c-.1.3,0,1.8,0,2.5a4.9,4.9,0,0,0,.2,1.3.5.5,0,0,0,.3.4h1.5l1.4-.2a2,2,0,0,0,1.3-1.2c.2-.4.3-.5.4-.5s.2.3.1.4a12.6,12.6,0,0,1-.6,1.7l-.3.2h-7c-.3,0-.5,0-.5-.2s.2-.2.5-.3,1.1-.3,1.2-1.2.1-2.6.1-4.5V2.1c0-.7-.2-.9-.9-1.1s-.5-.1-.5-.3.2-.2.5-.2h4.8Z"/><path class="cls-1" d="M184.5.6h2l.3.2,1.3,1.6c.6.8,4.2,4.8,5.3,5.9s.2-.1.2-.1,0-2.2,0-4.5a10.3,10.3,0,0,0-.1-1.6c0-.3-.1-.7-1-1s-.4-.2-.4-.4.2-.1.4-.1h2.9c.4,0,.4,0,.4.2s-.1.2-.4.3-1,.3-1,1.2-.2,3.7-.2,6.5c0,.7.1,1.9.1,2.1s-.1.3-.2.3l-.7-.5-1-1.3-5.7-6.7h-.2c0,.4-.1.9-.1,2.1V9.3c.1.7.2,1,1,1.2s.4.2.4.3-.2.2-.5.2h-2.7c-.2,0-.4,0-.4-.2s.2-.2.3-.3,1.1-.3,1.1-1.5.3-5.2.3-6.5-.1-.7-.1-.8-.6-.5-1.3-.7-.4-.1-.4-.3S184.2.6,184.5.6Z"/><path class="cls-1" d="M207.8.6a1.9,1.9,0,0,0,1.1-.3h.2c.1,0,.1.1.1.4a8.8,8.8,0,0,0-.4,1.8.3.3,0,0,1-.3.3c-.1,0-.2-.1-.2-.5s-.3-.9-1.3-1h-2.2c-.2,0-.1.2-.1.2v4c0,1.9,0,3.4.1,4s.2.9,1.2,1.1.4.2.4.3-.3.2-.5.2h-3.6l-.5-.2.3-.3c1.1-.3,1.2-.5,1.2-1.7s.1-4.2.1-5.4V1.5c0-.1-.1-.2-.1-.2h-2a1.4,1.4,0,0,0-1.2.4l-.5.8c-.1.3-.2.3-.3.3s-.2-.2-.2-.4a15.8,15.8,0,0,0,.3-2.1.3.3,0,0,1,.2-.3l.3.3.5.3h7.4Z"/><path class="cls-1" d="M217.8.6h1.5V2.3c0,.3-.1.4-.2.4s-.2-.2-.2-.4-.6-1-1.1-1.1h-2.3s-.2.1-.2.5-.1,3.4,0,3.7,0,.2.1.2h1c1.5,0,1.6-.1,1.9-.8s.2-.3.3-.3.1.2.1.4V6.8c0,.4-.1.5-.2.5s-.2-.2-.3-.4-.3-.8-1.3-.8h-1.7c-.1.3,0,1.8,0,2.5a4.9,4.9,0,0,0,.2,1.3.5.5,0,0,0,.3.4h1.5l1.4-.2A2,2,0,0,0,220,9.2c.2-.4.3-.5.4-.5s.2.3.1.4a12.6,12.6,0,0,1-.6,1.7l-.3.2h-7c-.3,0-.5,0-.5-.2s.2-.2.5-.3,1.1-.3,1.2-1.2.1-2.6.1-4.5V2.1c0-.7-.2-.9-.9-1.1s-.5-.1-.5-.3.2-.2.5-.2h4.8Z"/><path class="cls-1" d="M230.3,5.5l-.5.3a.3.3,0,0,0-.1.2,22.8,22.8,0,0,0,2.5,3.6,2.5,2.5,0,0,0,1.6.9.3.3,0,0,1,.3.2l-.2.2h-.9a3,3,0,0,1-2.1-1l-2-3-.6-.8L227,6.1c-.1,0-.2.1-.2.2s0,2.3.1,3.2.2.9,1,1.1.4.2.4.3l-.4.2h-3.4c-.2,0-.4-.1-.4-.2s.1-.2.4-.2,1-.3,1-.9.1-2.2.1-3.2a44.6,44.6,0,0,0-.1-4.5c-.1-.6-.2-.6-.9-.8s-.4-.1-.4-.3.1-.2.4-.2H228a4,4,0,0,1,2.6.7,2.7,2.7,0,0,1,.9,2A2.7,2.7,0,0,1,230.3,5.5Zm-.9-3.8a2.6,2.6,0,0,0-1.6-.6h-.8l-.2.3c0,.6-.1,3.7,0,3.9l.3.2a4.7,4.7,0,0,0,2-.4,2.4,2.4,0,0,0,1.1-2A2.7,2.7,0,0,0,229.4,1.7Z"/></svg>