<?xml version="1.0" standalone="no"?><!DOCTYPE svg PUBLIC "-//W3C//DTD SVG 1.1//EN" "http://www.w3.org/Graphics/SVG/1.1/DTD/svg11.dtd"><svg class="icon" width="200px" height="200.00px" viewBox="0 0 1024 1024" version="1.1" xmlns="http://www.w3.org/2000/svg"><path fill="#333333" d="M955.076923 744.369231l-120.123077-96.492308c-27.569231-21.661538-66.953846-23.630769-94.523077-1.969231l-102.4 74.83077c-11.815385 9.846154-29.538462 7.876923-41.353846-3.938462l-153.6-137.846154-137.846154-153.6c-11.815385-11.815385-11.815385-27.569231-3.938461-41.353846l74.830769-102.4c21.661538-27.569231 19.692308-66.953846-1.969231-94.523077l-96.492308-120.123077c-29.538462-35.446154-82.707692-39.384615-116.184615-5.907692l-98.461538 102.4c-15.753846 15.753846-23.630769 39.384615-23.63077 61.046154 9.846154 200.861538 100.430769 391.876923 234.338462 525.784615 133.907692 133.907692 324.923077 224.492308 525.784615 234.338462 21.661538 1.969231 43.323077-7.876923 59.076923-23.63077l102.4-102.4c33.476923-31.507692 31.507692-86.646154-5.907692-114.215384z" /></svg>