<?xml version="1.0" standalone="no"?><!DOCTYPE svg PUBLIC "-//W3C//DTD SVG 1.1//EN" "http://www.w3.org/Graphics/SVG/1.1/DTD/svg11.dtd"><svg class="icon" width="200px" height="200.00px" viewBox="0 0 1024 1024" version="1.1" xmlns="http://www.w3.org/2000/svg"><path fill="#333333" d="M502.4 60.8C348.8 60.8 224 185.6 224 341.6c0 153.6 151.2 348 280.8 506.4 127.2-160.8 280.8-350.4 280.8-506.4-2.4-156-127.2-280.8-283.2-280.8z m0 465.6c-103.2 0-184.8-84-184.8-184.8 0-103.2 84-184.8 184.8-184.8 103.2 0 184.8 84 184.8 184.8 2.4 103.2-81.6 184.8-184.8 184.8z m0 0"  /><path fill="#333333" d="M396.8 341.6c0 28.8 12 55.2 31.2 74.4 19.2 19.2 48 31.2 74.4 31.2 28.8 0 55.2-12 74.4-31.2 19.2-19.2 31.2-48 31.2-74.4 0-28.8-12-55.2-31.2-74.4-19.2-19.2-48-31.2-74.4-31.2-28.8 0-55.2 12-74.4 31.2-19.2 19.2-31.2 45.6-31.2 74.4z m0 0"  /><path fill="#333333" d="M504.8 970.4c-180 0-362.4-57.6-362.4-165.6 0-60 60-110.4 165.6-141.6 19.2-4.8 38.4 4.8 43.2 24 4.8 19.2-4.8 38.4-24 43.2-79.2 21.6-115.2 52.8-115.2 74.4 0 38.4 115.2 96 295.2 96 180 0 295.2-57.6 295.2-96 0-21.6-43.2-55.2-122.4-76.8-19.2-4.8-28.8-24-24-43.2 4.8-19.2 24-28.8 43.2-24 110.4 28.8 175.2 81.6 175.2 144-7.2 108-189.6 165.6-369.6 165.6z m0 0"  /></svg>