<?xml version="1.0" standalone="no"?><!DOCTYPE svg PUBLIC "-//W3C//DTD SVG 1.1//EN" "http://www.w3.org/Graphics/SVG/1.1/DTD/svg11.dtd"><svg class="icon" width="200px" height="200.00px" viewBox="0 0 1024 1024" version="1.1" xmlns="http://www.w3.org/2000/svg"><path fill="#333333" d="M512 898.84444445a45.51111147 45.51111147 0 0 1-32.31288853-13.19822187l-353.62133334-354.0764448a239.3884448 239.3884448 0 0 1 0-336.78222187 238.47822187 238.47822187 0 0 1 336.78222187 0L512 243.93955591l49.152-49.152a238.47822187 238.47822187 0 0 1 336.78222187 0 239.3884448 239.3884448 0 0 1 0 336.78222187l-353.62133334 354.0764448A45.51111147 45.51111147 0 0 1 512 898.84444445zM294.45688853 216.17777778a145.6355552 145.6355552 0 0 0-103.76533333 42.7804448 147.456 147.456 0 0 0 0 207.98577707L512 788.70755591l321.3084448-321.76355626a147.456 147.456 0 0 0 0-207.98577707 151.09688853 151.09688853 0 0 0-207.53066667 0l-81.4648896 81.92a45.51111147 45.51111147 0 0 1-64.62577706 0L398.22222187 258.95822258A145.6355552 145.6355552 0 0 0 294.45688853 216.17777778z" /></svg>