<?xml version="1.0" standalone="no"?><!DOCTYPE svg PUBLIC "-//W3C//DTD SVG 1.1//EN" "http://www.w3.org/Graphics/SVG/1.1/DTD/svg11.dtd"><svg class="icon" width="200px" height="200.00px" viewBox="0 0 1024 1024" version="1.1" xmlns="http://www.w3.org/2000/svg"><path fill="#333333" d="M547.58 93.71l4.11 3.3L962.51 459.5a30 30 0 0 1-16.35 52.29l-3.51 0.21H812v360a60 60 0 0 1-60 60H272a60 60 0 0 1-60-60V512H81.35a30 30 0 0 1-19.92-7.56l-2.58-2.58a30 30 0 0 1 0-39.69l2.64-2.67L472.31 97.04a60 60 0 0 1 75.3-3.33zM632 602h-240v240h240v-240z" /></svg>