<?xml version="1.0" standalone="no"?><!DOCTYPE svg PUBLIC "-//W3C//DTD SVG 1.1//EN" "http://www.w3.org/Graphics/SVG/1.1/DTD/svg11.dtd"><svg class="icon" width="200px" height="200.00px" viewBox="0 0 1024 1024" version="1.1" xmlns="http://www.w3.org/2000/svg"><path fill="#333333" d="M512 61.99878183c-248.52848818 0-450.00121817 201.47273086-450.00121817 450.00121817S263.47151182 962.00121817 512 962.00121817 962.00121817 760.52848818 962.00121817 512 760.52848818 61.99878183 512 61.99878183zM727.98001543 567.86005214L530.66876065 758.73960107c-5.35934795 5.35934795-12.77079697 8.38266328-20.56853848 8.38266328-7.80139688 0-15.11292217-3.02209717-20.66846309-8.48258789L292.31182286 567.86005214C264.62673301 540.46498555 249.41876065 504.10477109 249.41876065 465.30372588c0-38.79982705 15.20797237-75.16247871 42.79801201-102.55632539 27.48889688-27.10016807 63.95147315-42.11316651 102.7513002-42.11316651C431.42577471 320.63423398 466.42726425 334.08622198 493.52621328 358.45797237l16.57400889 14.91307382L526.77049942 358.45797237c27.00389971-24.37175039 62.00051484-37.82373838 98.46309023-37.82373839 38.79982705 0 75.25752802 14.91307383 102.74642578 42.11316651 27.68996426 27.39384756 42.89793662 63.85642295 42.79801201 102.55632539C770.77802744 504.10477109 755.57005508 540.56491016 727.98001543 567.86005214z"  /><path fill="#333333" d="M393.31201221 382.92477295C380.53999708 381.46368623 354.80220927 386.14306221 335.78980683 405.15424648c-15.30302168 15.30424072-24.66177451 37.43378965-24.95179775 59.27331534-0.19497393 6.23551201 4.8743499 11.40476045 11.1098628 11.49981065l0.19497392 0c6.14046269 0 11.20978653-4.9694001 11.40597949-11.20978653C333.74379834 448.63344864 340.66415761 432.35433828 351.88003672 421.14333271c13.5470373-13.55191172 32.26332305-16.47408427 38.79860801-15.69784482 6.14046269 0.68484638 11.89097666-3.7032873 12.57704209-9.94489277C403.93565878 389.2650831 399.5475251 383.6108375 393.31201221 382.92477295z"  /></svg>