<svg xmlns="http://www.w3.org/2000/svg" viewBox="0 0 1024 1024"><path d="M903.6474251 875.86407002L865.51872295 139.58257168C863.29003115 96.12307988 827.35990333 62 783.74982412 62L240.18994092 62C196.64009667 62 160.74008633 96.12307988 158.51139453 139.58257168L120.3525749 875.86407002c-1.17458086 22.40738877 6.92701523 44.36301533 22.37727129 60.62644336s36.92400381 25.50948662 59.36151006 25.50948662l619.8172875 0c22.46762373 0 43.91125401-9.24605948 59.33139258-25.50948662C896.69029239 920.22708535 904.82200596 898.30157627 903.6474251 875.86407002zM756.19235059 249.99317334c-27.97911826 109.29625576-126.43308896 188.83646191-243.95141075 188.83646192-117.39785185 0-215.82170508-79.38961963-243.8610583-188.59552295C246.33390253 241.62051992 230.67282412 220.17688964 230.67282412 195.0589294c0-32.70755918 26.50336348-59.24104013 59.24104013-59.24104014C322.62142344 135.81789013 349.12478692 162.35137021 349.12478692 195.0589294c0 18.73305878-8.7039457 35.41813066-22.28691885 46.26041572 23.46149971 80.74490537 97.52032969 138.78124717 185.43318925 138.78124717 87.82250801 0 161.76086719-57.8857544 185.31271934-138.48007237-13.82391299-10.81216758-22.70856357-27.67794433-22.70856357-46.591708 0-32.70755918 26.53348096-59.24104013 59.24104013-59.24104015 32.6774417 0 59.18080518 26.53348096 59.18080518 59.24104015C793.2970584 219.9359498 777.93715479 241.22899268 756.19235059 249.99317334z"/></svg>