<svg xmlns="http://www.w3.org/2000/svg" viewBox="0 0 1024 1024"><path d="M516.102 772.036c4.399 0 8.874-0.27 13.379-0.806 43.205-5.185 79.893-35.384 93.434-77 1.022-3.113-0.454-6.449-3.434-7.816-2.947-1.372-6.512-0.186-8.18 2.606-0.157 0.266-17.323 27.993-84.15 37.018-10.005 1.342-19.74 2.046-28.966 2.046-46.82-0.03-67.685-17.677-67.876-17.84-2.356-2.095-5.952-2.149-8.367-0.108-2.439 2.041-3 5.588-1.337 8.303 20.382 33.043 56.956 53.597 95.497 53.597z m359.33-414.166c-0.59 0-1.126 0.108-1.686 0.108C834.589 188.456 684.972 62 505.587 62 321.27 62 168.22 195.44 134.296 371.977c-32.984 5.936-58.088 34.926-58.088 69.986v140.32c0 39.329 31.537 71.22 70.478 71.22 21.966 0 41.354-10.372 54.252-26.303 31.163 82.425 94.607 148.884 174.898 183.949 0.191-0.418 1.71-3.374 3.54-5.73 1.265-1.633 2.681-2.97 3.896-2.97 1.26 0 2.415 0.456 3.404 1.154-18.583-13.836-85.705-84.952-100.245-184.195-6.379-43.68 26.339-86.56 64.443-93.654 61.172-11.39 122.024-24.365 183.196-35.54 38.887-7.093 65.46-28.424 81.712-63.941 3.807-8.303 9.306-25.09 11.83-49.3 0.668-3.6 3.62-6.363 7.402-6.363 2.523 0 4.667 1.288 6.089 3.142l1.687-1.047c24.11 35.004 71.924 112.511 78.79 194.237 7.885 93.438 3.487 157.434-68.033 222.905a4.535 4.535 0 0 1-0.296 0.27 5.85 5.85 0 0 0-1.584 4.003c0 2.012 1.073 3.734 2.627 4.781 0.59 0.242 1.18 0.566 1.771 0.807 0.481 0.109 0.94 0.266 1.422 0.266 0.486 0 0.914-0.157 1.342-0.266 1.019-0.536 1.982-1.155 2.976-1.692 72.328-39.846 127.813-106.388 153.453-186.423 10.38 15.42 26.63 26.516 45.507 30.387-30.279 137.71-153.1 223.898-305.265 236.98-9.119-22.62-31.567-38.684-57.93-38.684-34.43 0-62.348 27.269-62.348 60.877 0 33.61 27.913 60.847 62.348 60.847 27.76 0 51.01-17.835 59.08-42.339 176.14-14.318 317.336-119.013 346.813-281.685 26.039-10.884 44.326-36.431 44.326-66.253V429.74c0-39.683-32.398-71.87-72.357-71.87z m-64.979 40.785C764.515 274.21 645.471 185.312 505.43 185.312c-139.456 0-258.071 88.146-304.438 211.784-2.307-2.823-5.013-5.238-7.669-7.684 26.25-150.664 155.918-265.218 312.264-265.218 155.598 0 284.862 113.427 311.973 263.045-2.68 3.6-5.149 7.357-7.107 11.416zM375.846 811.149h-0.01c-0.03 0.063-0.03 0.073 0.01 0z m0 0"/></svg>