<svg xmlns="http://www.w3.org/2000/svg" viewBox="0 0 1024 1024"><path d="M344.81527531 360.08170531L137.15985781 152.31971563c26.80284187-26.80284187 53.55239812-53.65896938 80.40852563-80.51509782 12.41563031-12.41563031 32.50444031-12.62877469 44.92007062-0.37300219L424.26465406 233.36767344c12.36234469 12.36234469 12.36234469 32.71758469-0.15985781 45.18650062L388.66962687 313.93605688 355.68561313 346.92007062C351.63587938 351.02309094 347.95914781 355.39254031 344.81527531 360.08170531zM515.65008875 698.50088844c-33.99644719-29.25399656-66.60745969-60.31971563-98.25932531-91.91829469-31.59857906-31.8117225-62.55772687-64.31616375-91.8117225-98.47246875-23.97868594-27.70870312-28.66785094-67.8330375-16.14564844-101.61634125L96.23623437 193.29662562c-49.60923656 50.99467125-43.26820594 177.44227313 11.08348126 288.54351657 23.33925375 48.06394313 53.60568375 91.43872125 84.88454718 132.68206031 31.22557688 40.92362344 65.488455 79.66252219 101.56305469 115.95026625 36.18117187 36.28774406 74.65364156 70.71048 115.68383625 101.93605687 41.24333906 31.38543562 84.72468937 61.49200688 132.46891687 84.72468938 111.26110125 54.29840156 237.76198969 60.26643 288.70337438 10.60390781l-213.19715812-213.19715812C583.64298406 727.06216719 543.46536406 722.42628781 515.65008875 698.50088844zM952.32859719 761.43161656l-161.77619906-161.82948469c-12.41563031-12.2557725-32.77087031-12.2557725-45.18650063 0.15985782l-0.05328562 0-35.54174063 35.488455-32.82415594 32.93072812c-4.04973375 4.04973375-8.47246875 7.61989312-13.16163375 10.92362344l207.6554175 207.76198969c26.8561275-26.90941406 53.65896938-53.65896938 80.51509782-80.46181219C964.4777975 793.93605687 964.7442275 773.84724687 952.32859719 761.43161656z"/></svg>