<svg xmlns="http://www.w3.org/2000/svg" viewBox="0 0 1024 1024"><path d="M568.25 301.0625V62H216.6875C193.30859375 62 174.5 80.80859375 174.5 104.1875v815.625c0 23.37890625 18.80859375 42.1875 42.1875 42.1875h590.625c23.37890625 0 42.1875-18.80859375 42.1875-42.1875V343.25H610.4375c-23.203125 0-42.1875-18.984375-42.1875-42.1875z m112.5 414.84375c0 11.6015625-9.4921875 21.09375-21.09375 21.09375H364.34375c-11.6015625 0-21.09375-9.4921875-21.09375-21.09375v-14.0625c0-11.6015625 9.4921875-21.09375 21.09375-21.09375h295.3125c11.6015625 0 21.09375 9.4921875 21.09375 21.09375v14.0625z m0-112.5c0 11.6015625-9.4921875 21.09375-21.09375 21.09375H364.34375c-11.6015625 0-21.09375-9.4921875-21.09375-21.09375v-14.0625c0-11.6015625 9.4921875-21.09375 21.09375-21.09375h295.3125c11.6015625 0 21.09375 9.4921875 21.09375 21.09375v14.0625z m0-126.5625v14.0625c0 11.6015625-9.4921875 21.09375-21.09375 21.09375H364.34375c-11.6015625 0-21.09375-9.4921875-21.09375-21.09375v-14.0625c0-11.6015625 9.4921875-21.09375 21.09375-21.09375h295.3125c11.6015625 0 21.09375 9.4921875 21.09375 21.09375z m168.75-200.56640625v10.72265625H624.5V62h10.72265625c11.25 0 21.97265625 4.39453125 29.8828125 12.3046875l172.08984375 172.265625c7.91015625 7.91015625 12.3046875 18.6328125 12.3046875 29.70703125z"/></svg>