<svg xmlns="http://www.w3.org/2000/svg" viewBox="0 0 1024 1024"><path d="M512 1.984C338.112 1.984 197.12 137.6 197.12 304.896 197.12 348.096 206.72 389.184 223.616 426.368L517.376 894.912 800.384 426.368C817.344 389.184 826.752 348.032 826.752 304.896 826.752 137.6 685.888 1.984 512 1.984L512 1.984ZM512 519.744C402.88 519.744 314.56 430.976 314.56 321.472 314.56 212.096 402.88 123.264 512 123.264 620.992 123.264 709.504 212.096 709.504 321.472 709.504 430.976 620.992 519.744 512 519.744L512 519.744ZM638.528 318.912C638.528 389.12 581.824 445.952 511.936 445.952 442.112 445.952 385.408 389.056 385.408 318.912 385.408 248.832 442.112 192 511.936 192 581.824 192 638.528 248.896 638.528 318.912L638.528 318.912ZM339.135999 756.687501C229.247999 779.983501 183.664064 810.559994 183.664064 844.927994 183.664064 894.143994 300.8 961.984 511.04 961.984 721.28 961.984 838.492198 894.143994 838.492198 844.927994 838.492198 810.687994 793.152 781.007501 684.800001 756.687501L684.8 704.192C804.16 727.616 893.056 774.656 893.056 844.928 893.056 946.304 696.191991 1022.265626 511.039991 1022.265626 325.887991 1022.265626 129.024 946.304 129.024 844.928 129.024 774.528 218.496 726.592 338.496 704L339.135999 756.687501Z"/></svg>