<svg xmlns="http://www.w3.org/2000/svg" viewBox="0 0 1024 1024"><path d="M713.06033333 948.45c-99.26 0-179.715-80.457-179.715-179.715S613.80033333 589.02 713.06033333 589.02c99.258 0 179.688 80.458 179.688 179.715S812.31833333 948.45 713.06033333 948.45z m116.609-242.093c-10.028-10.028-26.302-10.028-36.305 0l-90.786 90.76-54.455-54.455c-10.028-10.028-26.274-10.028-36.305 0-10.029 10.028-10.029 26.273 0 36.303l72.608 72.609c10.029 10.028 26.3 10.028 36.33 0l108.912-108.912c10.03-10.03 10.03-26.277 0-36.305zM702.77933333 538.2c-0.878-0.074-1.653-0.527-2.581-0.527H315.11933333c-21.286 0-38.536 17.25-38.536 38.51 0 21.262 17.25 38.51 38.536 38.51h226.048c-19.932 22.24-35.577 48.29-45.756 77.02H315.11933333c-21.286 0-38.536 17.25-38.536 38.51 0 21.263 17.25 38.511 38.536 38.511h166.878c0 47.511 14.367 91.638 38.96 128.368H276.58333333c-56.713 0-102.668-45.982-102.668-102.694v-513.47c0-56.712 45.955-102.694 102.668-102.694h51.348V280.94h359.455V178.244h51.348c56.712 0 102.67 45.982 102.67 102.695v295.697c-36.707-24.596-80.833-38.963-128.343-38.963-3.487 0-6.846 0.377-10.282 0.527z m35.955-116.058c0-21.261-17.25-38.51-38.536-38.51H315.11933333c-21.286 0-38.536 17.249-38.536 38.51s17.25 38.51 38.536 38.51h385.079c21.284 0.001 38.536-17.249 38.536-38.51zM481.99933333 229.591h-102.72V126.897h51.347c0-28.357 23.016-51.348 51.373-51.348h51.346c28.357 0 51.348 22.991 51.348 51.348h51.348V229.59H481.99933333z m25.648-102.694c-14.142 0-25.648 11.482-25.648 25.673 0 14.19 11.508 25.673 25.648 25.673 14.19 0 25.698-11.482 25.698-25.673 0-14.19-11.509-25.673-25.698-25.673z"/></svg>