<svg xmlns="http://www.w3.org/2000/svg" viewBox="0 0 1024 1024"><path d="M961.1 511.55C961.1 263.28535156 759.81464844 62 511.55 62S62 263.28535156 62 511.55s201.28535156 449.55 449.55 449.55 449.55-201.28535156 449.55-449.55zM654.11035156 528.65l-215.46035156 216.72070313a23.26464844 23.26464844 0 0 1-33.16464844-1e-8c-9.13535156-9.22587891-22.725-25.78535156 0-53.82070312L584 512 405.48535156 332.49482422c-25.60517578-28.575-9.13535156-44.63964844 0-53.81982422a23.31035156 23.31035156 0 0 1 33.16464844 0L654.11035156 495.35a23.58017578 23.58017578 0 0 1 0 33.3z"/></svg>