<svg xmlns="http://www.w3.org/2000/svg" viewBox="0 0 1024 1024"><path d="M957.57714313 421.29523822q0 11.79428531-13.92000001 25.71428532l-194.46857156 189.66857156 46.08 267.84q0.54857156 3.77142844 0.54857157 10.69714312 0 11.24571469-5.62285688 18.99428532t-16.32 7.74857156q-10.14857156 0-21.39428531-6.44571469l-240.54857157-126.44571469-240.54857156 126.44571469q-11.79428531 6.44571469-21.39428531 6.44571469-11.24571469 0-16.86857156-7.74857156t-5.62285688-18.99428532q0-3.22285688 1.09714313-10.69714312l46.08-267.84-195.01714313-189.66857156q-13.37142844-14.46857156-13.37142843-25.71428532 0-19.81714313 30.03428531-24.61714312l268.93714312-39.08571469 120.54857157-243.77142844q10.14857156-21.94285688 26.26285687-21.94285687t26.26285688 21.94285687l120.54857156 243.77142844 268.93714312 39.08571469q30.03428531 4.8 30.03428532 24.61714312z"/></svg>