<svg xmlns="http://www.w3.org/2000/svg" viewBox="0 0 1024 1024"><path d="M675.26857156 612.54095197l163.95428531-159.08571468-226.07999999-33.18857157-101.28-204.61714312-101.28 204.61714312-226.08 33.18857156 163.95428531 159.08571469-39.08571469 225.53142844 202.49142844-106.62857156 201.94285687 106.62857156zM957.57714313 421.29523822q0 11.79428531-13.92000001 25.71428532l-194.46857156 189.66857156 46.08 267.84q0.54857156 3.77142844 0.54857157 10.69714312 0 26.81142844-21.94285688 26.81142844-10.14857156 0-21.39428531-6.44571469l-240.54857157-126.44571468-240.54857156 126.44571468q-11.79428531 6.44571469-21.39428531 6.44571469-11.24571469 0-16.86857156-7.74857156t-5.62285688-18.99428531q0-3.22285688 1.09714313-10.69714313l46.08-267.84-195.01714313-189.66857156q-13.37142844-14.46857156-13.37142843-25.71428531 0-19.81714313 30.03428531-24.61714313l268.93714312-39.08571469 120.54857157-243.77142843q10.14857156-21.94285688 26.26285687-21.94285688t26.26285688 21.94285688l120.54857156 243.77142843 268.93714312 39.08571469q30.03428531 4.8 30.03428532 24.61714313z"/></svg>