<svg xmlns="http://www.w3.org/2000/svg" viewBox="0 0 1024 1024"><path d="M546.981229 477.400649V240.891906a236.577734 236.577734 0 0 1 45.909739-143.017495A226.209148 226.209148 0 0 1 722.026355 9.191506 233.167199 233.167199 0 0 1 949.600317 66.220728a221.706762 221.706762 0 0 1 69.138571 125.690858 238.112525 238.112525 0 0 1-197.387079 281.805565 254.928231 254.928231 0 0 1-41.203381 3.410535c-76.061626 0.239967-152.022266 0-228.083892 0z m-69.889468 0H242.219794A240.057259 240.057259 0 0 1 6.460949 290.860091 237.873557 237.873557 0 0 1 82.761542 58.682756a236.714715 236.714715 0 0 1 318.131611 7.435986 238.999404 238.999404 0 0 1 72.95905 138.071169 232.143339 232.143339 0 0 1 3.205563 36.974957c0.239967 77.42644 0 154.749894 0 232.177334z m0 69.786482V782.538032a234.156064 234.156064 0 0 1-61.599599 162.050899 228.528832 228.528832 0 0 1-135.821475 75.44771 231.938367 231.938367 0 0 1-212.599005-70.127436A224.025446 224.025446 0 0 1 5.370098 832.711189a230.335585 230.335585 0 0 1 52.799798-201.889465 236.099799 236.099799 0 0 1 139.844927-79.303184 252.404575 252.404575 0 0 1 46.251692-4.194428h227.708944z m69.889468 2.729628h236.884692A238.283501 238.283501 0 0 1 916.684806 588.25453a224.605367 224.605367 0 0 1 98.096621 133.841746 239.204376 239.204376 0 0 1-169.212921 293.675946 216.453479 216.453479 0 0 1-79.166203 6.82207 235.997813 235.997813 0 0 1-196.534195-136.435392 218.841153 218.841153 0 0 1-21.762032-77.42644 253.905371 253.905371 0 0 1-1.124847-25.717493q-0.169977-114.503383 0-229.108752v-4.092442z m0 0"/></svg>