<svg xmlns="http://www.w3.org/2000/svg" viewBox="0 0 1024 1024"><path d="M145.472 313.216v594.88h715.072V313.216L553.92 105.28a91.2 91.2 0 0 0-101.76 0l-306.688 208zM603.52 53.824l321.536 218.24c9.92 6.848 14.848 15.424 14.848 25.728v643.264a29.44 29.44 0 0 1-11.136 23.68 43.264 43.264 0 0 1-28.544 9.28H105.728a43.264 43.264 0 0 1-28.544-9.28 29.44 29.44 0 0 1-11.2-23.68V297.792c0-10.304 4.992-18.88 14.912-25.728L402.432 53.76A180.864 180.864 0 0 1 503.04 24c36.48 0 69.952 9.92 100.608 29.824zM502.976 447.04c22.4-0.704 40.96-7.232 55.872-19.584a57.728 57.728 0 0 0 22.4-46.336c0-18.496-7.488-33.92-22.4-46.272-14.848-12.352-33.472-18.56-55.872-18.56-22.336 0-40.96 6.208-55.872 18.56a57.728 57.728 0 0 0-22.336 46.272c0 18.56 7.488 33.984 22.4 46.336 14.848 12.352 33.472 18.88 55.808 19.584z m0 65.856c-44.672-0.64-82.112-13.568-112.32-38.592s-45.76-56.128-46.592-93.184c0.832-36.992 16.384-68.096 46.592-93.12s67.648-37.888 112.32-38.592c44.736 0.64 82.176 13.568 112.384 38.592s45.696 56.128 46.528 93.12c-0.832 37.12-16.32 68.16-46.528 93.184s-67.648 37.888-112.384 38.592z"/></svg>