<svg xmlns="http://www.w3.org/2000/svg" viewBox="0 0 1086 1024"><path d="M83.357933 82.885025v638.104271c0 12.287947 14.459938 33.449857 26.157889 38.911834l431.816153 181.526223c-0.682997-0.681997 2.047991 0.682997 2.047991 0.682997s2.792988-0.682997 2.078991-0.682997l431.785153-181.526223c11.014953-4.095982 26.189888-26.623886 26.189888-38.911834V82.885025L567.488863 212.560471l-23.3959 6.825971-23.4279-6.825971L83.357933 82.885025zM79.912948 3.043367l462.784021 130.326443L1005.480989 3.044367c43.411814-12.287947 80.585655 13.652942 80.585656 59.359746v657.220189c0 44.37281-34.443853 96.224588-76.427674 113.973512l-432.49815 182.892218c-12.411947 5.460977-24.109897 7.508968-34.443852 7.508968a95.262593 95.262593 0 0 1-34.442853-7.509968L76.468963 834.963809C33.771146 817.213884 0.01029 765.363106 0.01029 720.990296V62.405113C-0.671707 17.380306 35.851137-9.24358 79.912948 3.043367zM309.349967 569.003946l-95.603591 50.764783 18.834919-107.736539-77.419669-76.830672 107.736539-15.793932 47.134799-98.799577 47.786795 98.799577L465.556299 435.201518l-78.102666 76.147675 18.834919 107.737539-96.938585-50.082786z m381.08237-125.579463l243.741957-83.005645c20.882911-6.857971 32.984859-30.874868 25.599891-52.844774-7.447968-21.254909-30.31687-33.604856-51.851778-26.064888l-243.741958 83.005645c-20.882911 6.857971-32.984859 30.874868-25.59989 52.844774 7.446968 21.968906 30.31687 33.604856 51.851778 26.064888z m0 165.391293l243.741957-83.037645c20.882911-6.887971 32.984859-30.874868 25.599891-52.843774-7.447968-21.255909-30.31687-33.605856-51.851778-26.065888l-243.741958 83.005645c-20.882911 6.857971-32.984859 30.875868-25.59989 52.844774a40.990825 40.990825 0 0 0 51.851778 26.065888z m0 164.645296l243.741957-83.036645c20.882911-6.825971 32.984859-30.874868 25.599891-52.812774-7.447968-21.286909-30.31687-33.636856-51.851778-26.065889l-243.741958 83.005645c-20.882911 6.857971-32.984859 30.874868-25.59989 52.844774 7.446968 21.937906 30.31687 33.605856 51.851778 26.064889z"/></svg>