<?xml version="1.0" standalone="no"?><!DOCTYPE svg PUBLIC "-//W3C//DTD SVG 1.1//EN" "http://www.w3.org/Graphics/SVG/1.1/DTD/svg11.dtd"><svg t="1536663645995" class="icon" style="" viewBox="0 0 1024 1024" version="1.1" xmlns="http://www.w3.org/2000/svg" p-id="11691" xmlns:xlink="http://www.w3.org/1999/xlink" width="200" height="200"><defs><style type="text/css"></style></defs><path d="M801.792 791.552l-35.328-50.688c116.736-77.824 193.536-188.928 193.536-236.032 0-77.824-200.704-320-448-320-42.496 0-82.944 6.144-122.368 17.92l-37.888-53.76c50.688-16.896 103.936-28.16 160.768-28.16 283.136 0 512 286.72 512 384-0.512 63.488-88.576 195.584-222.72 286.72zM268.8 254.976c-122.88 71.68-204.8 183.296-204.8 250.368 0 79.872 200.704 320 448 320 48.64 0 95.232-9.728 138.752-25.6l37.376 52.736c-55.296 22.016-114.176 36.864-176.128 36.864-283.136 0-512-288.256-512-384C0 424.448 93.184 290.816 233.984 204.8l34.816 50.176z" fill="" p-id="11692"></path><path d="M510.976 167.936c-238.08 0-450.56 200.704-450.56 336.896 0 133.632 212.992 337.408 450.56 337.408s454.656-200.704 454.656-336.896c0-133.632-217.088-337.408-454.656-337.408z m2.048 529.92c-106.496 0-193.024-86.528-193.024-192s86.528-192 193.024-192 193.024 86.528 193.024 192-87.04 192-193.024 192z" fill="" p-id="11693"></path><path d="M513.024 377.344c-71.168 0-128 57.856-128 128s57.344 128 128 128 128-57.344 128-128c0-70.144-57.344-128-128-128zM232.448 205.824s68.608-39.936 122.368-57.856l38.912 53.76s-75.264 20.48-126.464 53.76c-18.944-24.576-34.816-49.664-34.816-49.664z m415.232 595.456s71.168-28.16 121.344-61.952c20.992 31.232 34.304 50.688 34.304 50.688s-55.808 39.424-118.784 63.488c-5.12-8.704-36.864-52.224-36.864-52.224z" fill="" p-id="11694"></path></svg>