<?xml version="1.0" standalone="no"?><!DOCTYPE svg PUBLIC "-//W3C//DTD SVG 1.1//EN" "http://www.w3.org/Graphics/SVG/1.1/DTD/svg11.dtd"><svg class="icon" width="200px" height="200.00px" viewBox="0 0 1024 1024" version="1.1" xmlns="http://www.w3.org/2000/svg"><path d="M513.288343 120.580263c216.131479 0 391.975393 175.800935 391.975393 391.891482 0 52.816926-10.370185 104.065124-30.830169 152.35699-19.773346 46.665833-48.081065 88.608084-84.137259 124.678604-36.057217 36.071543-78.000492 64.406892-124.665301 84.180238-48.263214 20.459984-99.539041 30.830169-152.342664 30.830169-52.8026 0-104.065124-10.370185-152.342664-30.830169-46.665833-19.773346-88.608084-48.108694-124.665301-84.180238-36.07052-36.07052-64.37824-78.012771-84.137259-124.678604-20.459984-48.290843-30.830169-99.552344-30.830169-152.35699C121.31295 296.381198 297.141514 120.580263 513.288343 120.580263L513.288343 120.580263zM513.288343 64.119343c-247.25636 0-448.436312 201.109344-448.436312 448.351378 0 247.214405 201.179952 448.520223 448.436312 448.520223S961.723631 759.685125 961.723631 512.470721C961.723631 265.228687 760.529353 64.119343 513.288343 64.119343L513.288343 64.119343 513.288343 64.119343M543.235398 760.03612 477.202473 760.03612l0-69.437465 66.032926 0L543.235398 760.03612 543.235398 760.03612M651.139967 447.89703c-7.03523 14.756075-22.01541 33.127492-44.928259 55.143924-22.926152 22.01541-38.131459 37.667901-45.614897 46.987151-7.483438 9.31925-13.173021 20.418029-17.026792 33.352619-3.853771 12.935614-5.54939 30.29805-5.101181 52.089355l-59.908438 0c0-25.40767 2.032286-45.727461 6.123464-60.931744 4.077875-15.205307 10.215666-28.475542 18.386766-39.826054 8.169053-11.351536 22.911826-28.027333 44.254923-50.042743 21.314445-22.001083 35.048237-38.005592 41.186028-47.997154 6.138814-9.978259 9.193383-24.845874 9.193383-44.604894 0-19.73139-7.048533-37.20639-21.104667-52.410674-14.069437-15.192004-34.500768-22.814612-61.267389-22.814612-60.370972 0-90.542132 35.875069-90.542132 107.583251l-59.908438 0c0.896416-32.694633 4.764514-57.526181 11.57564-74.552973 6.811126-17.026792 17.699104-32.216749 32.679283-45.613874 14.966876-13.382798 31.658024-23.248494 50.028417-29.611411 18.386766-6.347568 37.781488-9.529027 58.199517-9.529027 41.284265 0 75.659167 12.136412 103.125729 36.422538 27.452235 24.270776 41.186028 56.615439 41.186028 97.001241C661.677974 416.702564 658.159848 433.154257 651.139967 447.89703L651.139967 447.89703 651.139967 447.89703" /></svg>