<?xml version="1.0" standalone="no"?><!DOCTYPE svg PUBLIC "-//W3C//DTD SVG 1.1//EN" "http://www.w3.org/Graphics/SVG/1.1/DTD/svg11.dtd"><svg class="icon" width="200px" height="199.61px" viewBox="0 0 1026 1024" version="1.1" xmlns="http://www.w3.org/2000/svg"><path d="M665.6 633.018182H218.763636c-11.636364 0-23.272727-9.309091-23.272727-23.272727 0-11.636364 9.309091-23.272727 23.272727-23.272728h446.836364c11.636364 0 23.272727 9.309091 23.272727 23.272728s-11.636364 23.272727-23.272727 23.272727zM665.6 495.709091H218.763636c-11.636364 0-23.272727-9.309091-23.272727-23.272727 0-11.636364 9.309091-23.272727 23.272727-23.272728h446.836364c11.636364 0 23.272727 9.309091 23.272727 23.272728s-11.636364 23.272727-23.272727 23.272727zM218.763636 726.109091h446.836364c11.636364 0 23.272727 9.309091 23.272727 23.272727 0 11.636364-9.309091 23.272727-23.272727 23.272727H218.763636c-11.636364 0-23.272727-9.309091-23.272727-23.272727 2.327273-13.963636 11.636364-23.272727 23.272727-23.272727z"  /><path d="M137.309091 207.127273m-27.927273 0a27.927273 27.927273 0 1 0 55.854546 0 27.927273 27.927273 0 1 0-55.854546 0Z"  /><path d="M53.527273 179.2c0-30.254545 25.6-55.854545 55.854545-55.854545h665.6c30.254545 0 55.854545 25.6 55.854546 55.854545v111.709091H53.527273V179.2z m774.981818 684.218182c-6.981818 20.945455-27.927273 37.236364-53.527273 37.236363H109.381818c-30.254545 0-55.854545-25.6-55.854545-55.854545V346.763636h777.309091v39.563637H886.690909V179.2c0-60.509091-48.872727-111.709091-111.709091-111.709091H109.381818C48.872727 67.490909 0 118.690909 0 179.2v665.6c0 60.509091 48.872727 111.709091 111.709091 111.709091h665.6c55.854545 0 100.072727-39.563636 109.381818-93.090909h-58.181818z"  /><path d="M358.4 207.127273m-27.927273 0a27.927273 27.927273 0 1 0 55.854546 0 27.927273 27.927273 0 1 0-55.854546 0Z"  /><path d="M249.018182 207.127273m-27.927273 0a27.927273 27.927273 0 1 0 55.854546 0 27.927273 27.927273 0 1 0-55.854546 0Z"  /><path d="M856.436364 686.545455c-62.836364 0-116.363636-51.2-116.363637-116.363637 0-62.836364 51.2-116.363636 116.363637-116.363636 62.836364 0 116.363636 51.2 116.363636 116.363636-2.327273 65.163636-53.527273 116.363636-116.363636 116.363637z m0-281.6c-93.090909 0-167.563636 74.472727-167.563637 167.563636s167.563636 279.272727 167.563637 279.272727 167.563636-186.181818 167.563636-279.272727-76.8-167.563636-167.563636-167.563636z"  /></svg>