<?xml version="1.0" standalone="no"?><!DOCTYPE svg PUBLIC "-//W3C//DTD SVG 1.1//EN" "http://www.w3.org/Graphics/SVG/1.1/DTD/svg11.dtd"><svg class="icon" width="200px" height="188.06px" viewBox="0 0 1089 1024" version="1.1" xmlns="http://www.w3.org/2000/svg"><path d="M549.763293 483.018868c-52.692967 0-94.847341-42.154374-94.847341-94.847341s42.154374-94.847341 94.847341-94.847341 94.847341 42.154374 94.847341 94.847341S602.456261 483.018868 549.763293 483.018868zM549.763293 330.209262c-33.372213 0-59.718696 26.346484-59.718696 59.718696s26.346484 59.718696 59.718696 59.718696 59.718696-26.346484 59.718696-59.718696S581.379074 330.209262 549.763293 330.209262z"  /><path d="M549.763293 727.16295l-131.732419-230.092624c-21.077187-35.128645-38.641509-66.744425-38.641509-107.142367 0-94.847341 77.283019-170.373928 170.373928-170.373928s170.373928 77.283019 170.373928 170.373928c0 38.641509-14.051458 64.987993-33.372213 98.360206L549.763293 727.16295zM549.763293 254.682676c-75.526587 0-135.245283 61.475129-135.245283 135.245283 0 31.61578 14.051458 57.962264 33.372213 89.578045l101.87307 177.399657 107.142367-186.181818c17.564322-31.61578 29.859348-50.936535 29.859348-80.795883C685.008576 314.401372 625.28988 254.682676 549.763293 254.682676z"  /><path d="M867.67753 807.958834 223.066895 807.958834c-26.346484 0-47.423671-14.051458-59.718696-35.128645-8.782161-15.80789-8.782161-36.885077 1.756432-52.692967l135.245283-249.413379c5.269297-8.782161 15.80789-12.295026 24.590051-7.025729 8.782161 5.269297 12.295026 15.80789 7.025729 24.590051l-131.732419 244.144082c-10.538593 19.320755 3.512864 42.154374 24.590051 42.154374l0 0 642.854202 0 0 0c21.077187 0 35.128645-22.833619 24.590051-40.397942l-128.219554-244.144082c-5.269297-8.782161-1.756432-19.320755 7.025729-22.833619 8.782161-5.269297 19.320755-1.756432 22.833619 7.025729l131.732419 251.169811c5.269297 10.538593 8.782161 24.590051 5.269297 36.885077C923.883362 788.638079 897.536878 807.958834 867.67753 807.958834z"  /></svg>