<?xml version="1.0" standalone="no"?><!DOCTYPE svg PUBLIC "-//W3C//DTD SVG 1.1//EN" "http://www.w3.org/Graphics/SVG/1.1/DTD/svg11.dtd"><svg class="icon" width="64px" height="61.13px" viewBox="0 0 1072 1024" version="1.1" xmlns="http://www.w3.org/2000/svg"><path d="M620.32986 835.51l143.189-478.72h235.788c-0.244 0.537-0.195 1.464-0.512 1.854L620.32986 835.535zM74.60986 356.79h218.6l148.09 468.92-366.69-468.92z m123.856-242.76l75.922 171.422H100.72286l97.694-171.398z m491.422 242.76L532.97286 881.567l-165.79-524.775h322.681zM329.19686 234.79L256.78486 71.363h189.123L329.19686 234.789zM536.75186 71.363l152.917 214.114H379.98186L532.89886 71.363h3.853z m86.99 0h189.05L740.45486 234.789 623.74286 71.363zM969.51486 285.477H795.28686l76.508-172.861 97.719 172.86z m91.94 19.065L917.09486 48.908C901.00486 20.578 866.04186 0 833.83486 0H237.57286c-32.28 0-67.365 20.529-83.383 48.762L10.80586 300.617c-16.799 29.501-13.727 71.924 7.24 98.865L484.45486 995.864c4.071 5.023 9.362 8.144 14.384 11.776l1.463 4.633 2.999-0.975c9.46 5.607 19.724 9.386 30.72 9.386 11.093 0 21.43-3.9 31.013-9.728l2.56 0.805 1.17-3.852c5.12-3.56 10.532-6.754 14.628-11.898l470.407-592.701c21.04-26.649 24.332-69.072 7.655-98.792z" /></svg>