<?xml version="1.0" standalone="no"?><!DOCTYPE svg PUBLIC "-//W3C//DTD SVG 1.1//EN" "http://www.w3.org/Graphics/SVG/1.1/DTD/svg11.dtd"><svg class="icon" width="200px" height="200.00px" viewBox="0 0 1024 1024" version="1.1" xmlns="http://www.w3.org/2000/svg"><path d="M231.763058 1005.056a58.785185 58.785185 0 0 1-31.459556-9.253926 59.354074 59.354074 0 0 1-27.799703-54.158222l15.17037-277.257482a20.821333 20.821333 0 0 0-5.707852-16.251259L15.699058 464.06163a59.259259 59.259259 0 0 1-13.236148-56.888889 58.443852 58.443852 0 0 1 41.149629-41.320297l283.591111-79.947851c6.030222-1.706667 10.24-5.138963 13.217186-10.808889l117.854814-224.293926a58.443852 58.443852 0 0 1 52.470519-31.857778 58.405926 58.405926 0 0 1 52.470518 31.876741l117.873778 224.293926c2.977185 5.669926 7.168 9.083259 13.198222 10.789926l286.340741 80.725333a58.595556 58.595556 0 0 1 40.808296 40.201481 59.373037 59.373037 0 0 1-11.339851 56.206223l-170.268445 204.193185a21.124741 21.124741 0 0 0-5.025185 16.990815l29.37363 253.383111a59.259259 59.259259 0 0 1-25.296593 56.414815 58.083556 58.083556 0 0 1-61.553778 3.546074l-256.056889-137.576297a19.911111 19.911111 0 0 0-20.347259 0.265482L261.02291 997.148444a58.842074 58.842074 0 0 1-29.259852 7.907556zM510.765132 56.832c-8.38163 0-14.904889 4.001185-18.887111 11.58637l-117.873778 224.312889A58.17837 58.17837 0 0 1 337.500539 322.37037L53.909428 402.318222a20.859259 20.859259 0 0 0-14.942815 15.132445c-2.218667 7.850667-0.530963 15.17037 4.892445 21.162666l166.267259 184.092445c10.998519 12.174222 16.327111 27.287704 15.416889 43.747555l-15.17037 277.257482c-0.455111 8.457481 3.147852 15.568593 10.183111 20.024889 6.997333 4.41837 14.487704 4.570074 21.63674 0.493037l239.919408-136.950519a57.685333 57.685333 0 0 1 57.097481-0.739555l256.075852 137.576296c7.376593 3.963259 14.999704 3.546074 21.959111-1.270519 6.97837-4.854519 10.277926-12.269037 9.272889-20.878222L797.162761 688.545185a58.993778 58.993778 0 0 1 13.577482-45.643852l170.249481-204.155259c5.12-6.162963 6.523259-13.179259 4.171852-20.916148-2.313481-7.661037-7.300741-12.61037-14.791111-14.734222L683.991799 322.37037a58.083556 58.083556 0 0 1-36.484741-29.658074L529.63328 68.41837a20.536889 20.536889 0 0 0-18.868148-11.58637z" fill="#333333" /></svg>