<?xml version="1.0" standalone="no"?><!DOCTYPE svg PUBLIC "-//W3C//DTD SVG 1.1//EN" "http://www.w3.org/Graphics/SVG/1.1/DTD/svg11.dtd"><svg class="icon" width="200px" height="200.00px" viewBox="0 0 1024 1024" version="1.1" xmlns="http://www.w3.org/2000/svg"><path d="M6.091785 511.709915C6.091785 232.648159 232.358074 6.38187 511.41983 6.38187s505.328045 226.266289 505.328045 505.328045-226.266289 505.328045-505.328045 505.328045S6.091785 790.771671 6.091785 511.709915z m608.5983 142.141643c-13.343909 0-64.398867 76.002266-92.247026 76.002266-7.54221 0-11.023229-6.38187-11.023229-12.763739 0-14.504249 10.443059-36.550708 15.664589-49.894618l67.299717-174.050991c33.649858-86.445326-9.28272-109.652125-49.314448-109.652125-53.955807 0-102.690085 26.107649-139.820963 59.757507-12.183569 11.603399-42.352408 56.856657-42.352408 73.681587 0 5.8017 5.8017 12.183569 12.18357 12.183569 16.824929 0 50.474788-87.025496 85.284986-87.025496 7.54221 0 15.664589 8.12238 9.282719 24.367139l-65.559207 157.226063c-6.38187 15.084419-38.291218 67.299717-38.291218 110.232294 0 33.649858 23.206799 70.200567 56.856657 70.200567 94.567705 0 203.63966-110.812465 203.63966-136.339944 0-8.70255-6.96204-13.924079-11.603399-13.924079z m-18.565439-434.547309c-41.192068 0-76.582436 31.909348-76.582436 71.360907 0 36.550708 24.947309 60.917847 63.238527 60.917847 41.772238 0 77.742776-30.168839 77.742776-71.360907 0-36.550708-26.687819-60.917847-64.398867-60.917847z" /></svg>