<?xml version="1.0" standalone="no"?><!DOCTYPE svg PUBLIC "-//W3C//DTD SVG 1.1//EN" "http://www.w3.org/Graphics/SVG/1.1/DTD/svg11.dtd"><svg class="icon" width="200px" height="200.00px" viewBox="0 0 1024 1024" version="1.1" xmlns="http://www.w3.org/2000/svg"><path d="M512.698 0.00846c59.479973-0.832 47.114979 59.825973 47.116979 116.719948 0 23.892989 4.053998 54.129976-5.352998 69.603968-6.696997 11.014995-17.914992 17.827992-33.195985 20.344991-8.931996 1.471999-17.259992-2.154999-22.48799-4.817998-32.732985-16.673993-23.558989-65.485971-23.558989-112.972949 0-19.885991-4.197998-46.614979 2.141999-62.106972C484.306012 9.810456 495.500007 7.160457 512.698 0.01046zM208.585136 102.270414c13.819994-0.073 23.31999 3.629998 31.052986 9.639996 19.809991 24.269989 39.622982 48.545978 59.429974 72.815967 9.899996 12.715994 24.637989 24.549989 31.054986 40.155982 8.999996 21.88299-4.194998 43.241981-17.669992 51.399977-14.213994 8.604996-36.185984 6.097997-48.185979-2.678999-14.264994-10.429995-25.535989-29.928987-36.406983-43.90298l-32.659986-40.155982c-15.069993-19.365991-39.579982-42.034981-16.062992-72.279968 7.419997-9.543996 16.927992-10.008996 29.447986-14.992993z m608.763727 14.456994c30.649986-0.552 59.959973 22.94299 46.581979 56.219974-6.484997 16.125993-21.88699 26.383988-32.125986 39.083983l-41.225981 46.044979c-7.294997 9.051996-15.444993 20.829991-25.163989 27.305988-10.894995 7.260997-32.232986 9.593996-44.97698 2.141999-16.631993-9.725996-29.633987-36.021984-16.062992-58.359974l40.692981-45.50998c10.708995-11.955995 21.41699-23.916989 32.124986-35.871983 7.005997-8.701996 14.467994-19.179991 24.091989-25.164989 5.354998-1.963999 10.711995-3.924998 16.063993-5.889997z m-43.90498 750.649662H249.275118v-240.399892c-0.002-48.451978-3.139999-102.017954 8.031996-139.743937 20.939991-70.719968 61.499972-119.912946 118.861947-154.199931 25.062989-14.979993 53.329976-25.541989 86.737961-32.659985l33.196985-3.211998c10.169995-0.18 20.343991-0.358 30.516986-0.536 22.70999 3.469998 43.322981 4.699998 62.643972 10.709995 88.60396 27.563988 149.631933 90.09996 176.149921 179.896919 11.109995 37.620983 8.029996 90.885959 8.029997 139.206938l-0.001 240.936891zM37.252213 375.866291c15.265993-0.33 26.269988 3.172999 38.549983 5.889998l70.673968 13.919993c17.759992 4.159998 36.597984 4.397998 47.651979 14.990994 11.362995 10.889995 19.404991 34.016985 8.565996 51.935976-5.897997 9.749996-16.166993 17.507992-28.911987 20.345991-13.312994 2.962999-27.239988-2.289999-38.013983-4.817998l-70.674968-13.919994c-18.123992-4.246998-37.394983-4.823998-49.793978-14.457993-17.291992-13.433994-19.893991-48.561978-1.606999-63.177972 7.049997-5.632997 14.192994-6.706997 23.559989-10.709995z m939.649578 21.417991c35.546984-0.376 59.615973 36.956983 37.479983 66.926969-12.049995 16.310993-33.019985 15.744993-57.286974 20.345991-23.915989 3.569998-47.833979 7.139997-71.749968 10.707996-10.669995 2.059999-24.654989 6.366997-36.942983 3.747998-13.916994-2.964999-25.876988-11.859995-31.050986-23.55799-10.429995-23.577989 3.129999-48.059978 20.344991-55.682975 9.942996-4.401998 22.64599-4.038998 34.801984-6.425997l71.209968-11.242995 33.194985-4.819997zM197.877141 903.250054h512.92577c65.169971-0.005 122.159945-11.685995 147.773933 31.052986 4.809998 8.023996 10.003996 21.131991 7.495997 35.871984-11.059995 65.026971-80.023964 51.937977-153.662931 51.935977H236.962124c-18.243992 0.001-40.423982 1.983999-54.075976-3.213999-29.299987-11.150995-53.709976-50.226977-31.587986-86.735961 6.311997-10.420995 17.109992-19.775991 28.911987-24.629989 5.885997-1.425999 11.776995-2.854999 17.665992-4.279998z" /></svg>